<svg xmlns="http://www.w3.org/2000/svg" width="260" height="32" viewBox="0 0 260 32" fill="none">
    <path
        d="M17.8782 25.9627C15.5679 25.9627 13.2577 25.6258 11.0524 24.9262L17.8519 31.8703L24.6252 24.9521C22.4462 25.6258 20.1622 25.9627 17.8782 25.9627Z"
        fill="#B40018"></path>
    <path
        d="M26.778 21.8431L28.5894 13.0852L19.6372 10.4682C20.4248 11.3492 21.2124 12.282 21.9475 13.2666C23.9164 15.9095 25.5441 18.7856 26.778 21.8431Z"
        fill="#D40019"></path>
    <path
        d="M9.00473 21.7913C10.2386 18.7597 11.8663 15.9095 13.8353 13.2925C14.5703 12.3079 15.3579 11.3492 16.1193 10.4941L7.19329 13.1111L9.00473 21.7913Z"
        fill="#D40019"></path>
    <path
        d="M9.47739 23.268C10.4487 23.7344 13.3891 24.9782 17.8521 24.9782C22.3413 24.9782 25.3079 23.7085 26.2267 23.268C25.8067 22.0502 24.389 18.2673 21.1074 13.8624C20.1098 12.515 19.0334 11.2454 17.8521 10.0535C16.6707 11.2454 15.5943 12.515 14.5967 13.8624C11.3151 18.2673 9.89744 22.0243 9.47739 23.268Z"
        fill="#FF000F"></path>
    <path d="M8.29591 23.2681L6.4057 14.0956C2.41526 20.5992 0.55131 25.7037 0 27.4138L8.29591 23.2681Z" fill="#B40018">
    </path>
    <path
        d="M17.3796 9.12059V0.025885C14.8855 2.51333 12.6015 5.20805 10.5013 8.03233C9.52995 9.35379 8.6111 10.6493 7.79726 11.8931L17.3796 9.12059Z"
        fill="#FF000F"></path>
    <path d="M27.4867 23.268L35.7564 27.3878C35.1788 25.6777 33.3411 20.5733 29.3769 14.1215L27.4867 23.268Z"
        fill="#B40018"></path>
    <path d="M8.8473 24.0971L0.315124 28.3465C2.02156 29.2275 7.74468 31.7667 16.5919 31.9999L8.8473 24.0971Z"
        fill="#FF000F"></path>
    <path
        d="M18.3507 9.09471L27.9592 11.8931C27.1454 10.6494 26.2265 9.35382 25.2814 8.03236C23.1812 5.18217 20.871 2.51335 18.3769 0V9.09471H18.3507Z"
        fill="#FF000F"></path>
    <path d="M26.883 24.0713L19.1122 32C28.0119 31.7668 33.735 29.2275 35.4415 28.3466L26.883 24.0713Z" fill="#FF000F">
    </path>
    <path
        d="M198.974 8.57556C200.623 8.50731 202.204 9.05331 203.372 10.0771C204.197 10.9643 204.678 12.1246 204.609 13.3531V13.4213C204.609 15.9466 203.097 17.4481 200.967 18.0623L205.09 23.7954H201.929L198.149 18.4718H194.782V23.7954H192.101V8.57556H198.974ZM198.836 16.1513C200.76 16.1513 201.998 15.1276 201.998 13.6261V13.5578C201.998 11.9198 200.829 11.0326 198.836 11.0326H194.919V16.1513H198.836Z"
        fill="currentColor"></path>
    <path
        d="M210.107 17.3797V8.57544H212.787V17.2432C212.787 20.0415 214.23 21.543 216.704 21.543C219.178 21.543 220.553 20.1097 220.553 17.3115V8.50719H223.233V17.175C223.233 21.7477 220.621 24 216.636 24C212.65 24 210.107 21.7477 210.107 17.3797Z"
        fill="currentColor"></path>
    <path
        d="M229.212 8.57552H236.084C237.527 8.50727 238.971 8.98502 240.07 9.94052C240.757 10.623 241.101 11.5103 241.101 12.4658V12.534C241.17 14.0355 240.276 15.3323 238.902 15.9465C240.689 16.5608 241.926 17.5845 241.926 19.6321V19.7003C241.926 22.4303 239.658 23.8636 236.222 23.8636H229.212V8.57552ZM238.49 12.8753C238.49 11.6468 237.527 10.9643 235.809 10.9643H231.961V14.991H235.672C237.321 14.991 238.49 14.3085 238.49 12.8753ZM236.153 17.2433H231.892V21.4066H236.359C238.215 21.4066 239.314 20.6558 239.314 19.2908V19.2226C239.383 18.0623 238.283 17.2433 236.153 17.2433Z"
        fill="currentColor"></path>
    <path
        d="M251.203 17.7892L245.087 8.50719H248.317L252.578 15.264L256.907 8.50719H260L253.884 17.6527V23.727H251.203V17.7892Z"
        fill="currentColor"></path>
    <path
        d="M46.9941 8.34126H51.4611L55.1034 14.2108L58.7458 8.34126H63.2128V23.6293H59.0206V14.825L55.1034 20.7628H55.0347L51.1175 14.825V23.5611H46.9941V8.34126Z"
        fill="currentColor"></path>
    <path
        d="M73.5899 8.27304H77.7132L84.2419 23.6293H79.7062L78.6066 20.8993H72.6964L71.5969 23.6293H67.1299L73.5899 8.27304ZM77.3009 17.5551L75.5828 13.2553L73.8647 17.5551H77.3009Z"
        fill="currentColor"></path>
    <path
        d="M88.0218 8.34126H94.0007C99.4986 8.34126 102.66 11.4808 102.66 15.8488V15.917C102.66 20.2851 99.4299 23.5611 93.932 23.5611H88.0906V8.34126H88.0218ZM92.2827 12.095V19.8756H94.0007C96.5435 19.8756 98.2616 18.5106 98.2616 16.0535V15.9853C98.2616 13.5283 96.5435 12.095 94.0007 12.095H92.2827Z"
        fill="currentColor"></path>
    <path d="M107.264 8.34126H111.525V23.6293H107.264V8.34126Z" fill="currentColor"></path>
    <path
        d="M115.442 21.3087L117.779 18.5105C119.153 19.6707 120.94 20.285 122.727 20.3532C123.895 20.3532 124.514 19.9437 124.514 19.3295V19.2612C124.514 18.5787 124.033 18.3057 121.902 17.7597C118.604 17.009 116.129 16.1217 116.129 12.9822V12.9139C116.129 10.1157 118.397 8.06817 122.108 8.06817C124.376 7.99992 126.644 8.68243 128.431 10.1157L126.301 13.1187C125.063 12.1632 123.552 11.6854 122.04 11.6172C121.009 11.6172 120.528 12.0267 120.528 12.5727V12.6409C120.528 13.3234 121.078 13.6647 123.208 14.1424C126.713 14.8932 128.912 16.0535 128.912 18.8517V18.92C128.912 22.0595 126.438 23.9022 122.727 23.9022C119.978 23.9022 117.435 23.015 115.442 21.3087Z"
        fill="currentColor"></path>
    <path
        d="M132.692 15.9853C132.692 11.549 136.334 8 140.801 8C140.87 8 140.939 8 141.007 8C145.749 8 149.254 11.4808 149.254 15.917V15.9853C149.254 20.4215 145.612 23.9706 141.145 23.9023C141.076 23.9023 141.007 23.9023 140.939 23.9023C136.197 23.9023 132.692 20.4215 132.692 15.9853ZM144.856 15.9853C144.924 13.8013 143.275 11.9585 141.076 11.822C141.007 11.822 141.007 11.822 140.939 11.822C138.808 11.822 137.021 13.5965 137.021 15.7123C137.021 15.7805 137.021 15.8488 137.021 15.917V15.9853C136.953 18.1693 138.671 20.012 140.87 20.0803H140.939C143.069 20.0803 144.856 18.3058 144.787 16.19C144.856 16.1218 144.856 16.0535 144.856 15.9853Z"
        fill="currentColor"></path>
    <path
        d="M153.721 8.34126H157.707L164.029 16.3948V8.34126H168.222V23.6293H164.51L157.913 15.3028V23.6293H153.721V8.34126Z"
        fill="currentColor"></path>
    <path d="M178.817 14.5935H172.686V17.1294H178.817V14.5935Z" fill="#FF525D"></path>
    <path d="M187.503 14.5935H181.372V17.1294H187.503V14.5935Z" fill="#B40018"></path>
    <path d="M178.817 8.50719V17.1294L181.372 14.7599V8.50719H178.817Z" fill="#FF000F"></path>
    <path d="M178.817 17.1294V23.3817H181.372V14.7599L178.817 17.1294Z" fill="#D40019"></path>
</svg>
