<svg width="1134" height="991" viewBox="0 0 1134 991" fill="none" xmlns="http://www.w3.org/2000/svg">
<path d="M269.769 159.623L191.266 0.60498L0.75 249.334L200.97 249.438L269.769 159.623Z" fill="#FF000D"/>
<path d="M567.003 0.60498H274.438H191.266L269.769 159.623H391.185H864.238L942.747 0.60498H567.003Z" fill="#CA0608"/>
<path d="M242.511 303.788L200.97 249.438L0.75 249.334L56.333 322.063L567.003 990.229V728.358L242.511 303.788Z" fill="#CA0608"/>
<path d="M988.512 60.355L942.747 0.60498L864.238 159.623L884.88 186.566L933.039 249.438L1133.26 249.334L988.512 60.355Z" fill="#FF000D"/>
<path d="M933.039 249.438L896.531 297.21L568.81 725.992L567.003 728.358V990.229L593.036 956.169L1081.6 316.916L1133.26 249.334L933.039 249.438Z" fill="#B20009"/>
<path d="M200.97 249.438L269.769 159.623H864.238L933.039 249.438L567.003 728.358L200.97 249.438Z" fill="#FF000D"/>
<path d="M304.13 245.742C298.29 237.108 200.97 260.691 200.97 260.691L400.612 120.299L436.443 135.755L570.165 15.954L695.389 93.025C695.389 93.025 588.302 82.62 579.952 75.897C579.439 86.259 578.03 94.158 586.849 101.446C610.043 120.614 632.384 140.529 655.04 160.161C657.829 162.57 660.531 165.022 663.127 167.336C683.231 150.933 738.868 117.261 738.868 117.261L933.039 260.691C933.039 260.691 843.317 229.872 838.212 236.083C834.663 240.38 833.197 245.924 830.233 252.063C797.363 233.133 764.985 214.493 732.803 195.967C737.736 188.078 742.188 180.955 747.071 173.13C740.755 167.301 734.453 161.499 727.376 154.971C723.196 168.626 719.221 180.889 715.851 193.272C715.203 195.573 716.428 198.556 717.683 200.865C724.609 213.516 731.843 226.049 738.916 238.642C740.128 240.8 741.128 243.037 743.071 246.97C727.828 238.952 714.488 231.933 701.145 224.914C700.754 225.136 700.368 225.36 699.965 225.577C702.554 229.04 704.83 232.703 707.78 235.925C722.442 251.924 736.836 268.113 752.275 283.571C758.642 289.934 760.625 295.444 755.516 302.607C754.441 304.116 753.828 305.862 752.641 308.178C734.222 299.209 716.111 290.415 698 281.614C697.086 281.17 696.261 280.524 695.282 280.198C680.509 275.219 671.379 266.902 671.446 252.576C671.461 250.386 669.6 247.849 667.822 246.034C645.553 223.361 623.155 200.802 600.846 178.176C600.003 177.322 599.702 176.08 599.154 175.019C598.29 175.537 597.423 176.042 596.577 176.555C602.804 190.889 609.045 205.218 615.476 219.991C614.547 219.742 613.788 219.728 613.389 219.391C597.982 206.345 582.602 193.286 567.244 180.174C560.786 174.662 556.364 169.469 556.158 160.199C555.791 143.008 551.313 125.868 548.461 108.715C547.839 104.978 546.855 101.266 546.172 98.192C511.397 126.697 476.654 155.179 441.413 184.062C427.841 173.311 414.392 162.648 399.991 151.239C392.895 164.568 366.093 183.544 366.093 183.544C366.093 183.544 381.865 199.323 383.636 204.446C385.229 209.09 384.297 212.18 380.151 215.71C363.51 229.893 347.318 244.46 330.967 258.891C330.049 258.394 329.119 257.898 328.197 257.394C333.931 241.792 339.656 226.171 345.381 210.565C344.652 210.058 343.917 209.556 343.187 209.048C330.523 220.941 317.872 232.836 304.13 245.742Z" fill="white"/>
<path d="M678.686 312.843C678.686 312.843 637.998 284.465 616.614 269.541C619.751 268.075 621.694 267.171 623.838 266.168C586.655 232.449 550.535 199.672 514.523 167.008C480.551 199.143 447.671 231.842 412.627 262.579C399.737 273.868 360.221 320.772 360.221 320.772C360.221 320.772 407.392 296.144 407.782 296.542C427.886 278.858 447.981 261.186 468.076 243.504C468.893 243.783 469.727 244.058 470.549 244.337C470.549 254.756 470.549 265.172 470.549 275.588C471.29 275.66 472.035 275.738 472.781 275.81C487.198 250.015 501.623 224.238 516.5 197.645C528.137 208.604 539.063 218.9 550.425 229.601C542.583 235.699 535.482 241.216 528.38 246.739C545.788 264.676 562.481 281.854 579.604 299.492C569.205 302.97 560.172 306.002 551.14 309.013C551.119 309.622 551.104 310.218 551.072 310.816C577.461 317.251 603.891 323.675 630.72 330.203L650.824 312.031L678.686 312.843Z" fill="white"/>
<path d="M841.238 323.211C847.478 323.211 851.726 323.211 856.677 323.211C848.801 335.173 841.474 346.312 833.325 358.672C839.781 358.672 844.19 358.672 849.55 358.672L885.962 311.033C880.412 297.851 875.028 285.075 869.399 271.7C859.768 289.327 850.896 305.544 841.238 323.211Z" fill="#9B0008"/>
<path d="M292.69 359.719C284.061 347.273 276.431 336.253 268.257 324.466C274.028 324.889 278.734 325.233 284.816 325.678C275.142 307.549 266.037 290.489 256.273 272.202C252.068 283.523 247.044 293.898 243.011 304.444L285.257 359.719C287.58 359.719 289.93 359.719 292.69 359.719Z" fill="#9B0008"/>
<path d="M809.723 346.867C813.821 346.867 816.826 346.867 821.192 346.867C814.728 335.449 808.874 325.096 802.271 313.438C796.262 325.11 791.143 335.055 785.794 345.458C789.408 346.067 792.018 346.501 795.054 347.01C788.068 358.327 781.367 369.175 774.122 380.915C780.381 380.915 784.841 380.915 789.842 380.915C783.73 391.652 777.894 401.891 771.462 413.197C776.481 413.197 779.879 413.197 784.461 413.197C777.789 423.504 771.685 432.931 765.393 442.643C761.891 437.492 758.912 433.103 755.316 427.816C759.532 427.816 762.694 427.816 767.024 427.816C760.518 416.695 754.578 406.554 748.311 395.853C751.531 395.63 753.932 395.466 757.661 395.215C751.821 384.672 746.376 374.839 740.188 363.657C734.667 374.935 729.964 384.539 725.121 394.437C728.437 395.183 730.596 395.674 733.134 396.233C727.577 405.726 722.311 414.702 716.278 424.987C721.157 424.987 723.965 424.987 728.065 424.987C721.283 436.207 715.106 446.439 708.427 457.494C703.157 448.676 698.464 440.825 693.302 432.181C695.687 432.443 696.783 432.572 699.307 432.844C695.256 425.828 691.775 419.806 688.115 413.471C678.91 426.534 677.515 430.994 681.232 434.217C677.562 440.469 673.898 446.721 670.073 453.245C672.511 453.901 673.924 454.285 676.092 454.876C671.238 462.935 666.815 470.287 661.918 478.428C658.25 472.424 655.16 467.383 651.93 462.114C654.139 461.49 655.709 461.039 657.508 460.53C655.852 457.196 654.332 454.138 653.343 452.134L642.696 433.529L635.774 448.352H635.777C634.702 450.65 633.676 452.833 632.666 455.002L632.265 455.852C631.25 458.014 630.244 460.175 629.206 462.394C631.712 462.613 633.376 462.749 634.993 462.896C630.802 470.375 626.823 477.487 622.747 484.757C624.801 485.517 625.897 485.925 627.604 486.546C625.295 489.934 623.431 492.666 621.198 495.928C617.302 489.202 613.852 483.252 610.239 477.021C611.812 476.67 612.899 476.426 615.014 475.96C611.163 469.554 607.664 463.746 603.607 457C599.767 463.836 596.523 469.608 593.294 475.365C594.889 476.466 595.942 477.2 597.083 477.993C593.089 485.439 589.364 492.39 585.568 499.473C581.842 491.074 578.448 483.456 575.064 475.821C576.29 475.645 577.452 475.477 579.481 475.19C574.171 465.998 569.156 457.344 563.75 448.013C559.278 454.613 555.557 460.105 551.965 465.407C547.186 457.061 542.648 449.132 537.998 441.009C539.945 440.27 541.529 439.664 543.802 438.793C538.641 429.573 533.852 421.012 528.428 411.315C523.131 421.632 518.494 430.652 513.617 440.141C516.279 440.815 517.971 441.238 520.052 441.765C515.538 449.433 511.294 456.642 506.831 464.221C509.001 464.798 510.658 465.236 512.893 465.83C510.513 469.591 508.52 472.734 506.082 476.592C501.106 468.806 496.716 461.948 491.934 454.463C494.808 454.172 496.909 453.954 499.762 453.664C494.191 442.906 488.88 432.66 483.067 421.443C477.498 432.732 472.631 442.583 467.595 452.782C470.065 453.406 471.586 453.803 473.574 454.309C469.329 461.371 465.379 467.953 461.425 474.528C463.139 475.672 464.225 476.392 465.582 477.292C463.635 479.88 462.047 481.992 460.188 484.465C457.559 480.443 455.445 477.21 453.328 473.98C454.556 473.073 456.383 471.869 456.325 471.757C452.579 464.53 448.67 457.396 444.565 449.861C447.029 449.513 449.223 449.219 452.454 448.76C446.485 437.142 440.839 426.136 434.42 413.632C428.224 425.957 423.006 436.353 417.69 446.943C420.475 447.778 422.335 448.341 424.586 449.011C421.48 453.589 418.746 457.622 415.65 462.182C408.766 450.976 402.209 440.332 395.19 428.922C398.89 428.348 402.032 427.861 406.065 427.237C400.776 418.081 395.816 409.507 390.686 400.623C392.534 400.035 393.993 399.569 396.411 398.795C392.421 391.142 388.709 384.032 384.314 375.601C379.313 384.929 375.255 392.507 370.866 400.699C373.667 401.19 375.387 401.495 377.503 401.865C372.305 410.684 367.367 419.073 361.642 428.777C366.435 428.777 369.387 428.777 373.739 428.777C369.294 435.09 365.659 440.252 361.606 445.999C355.203 436.865 349.432 428.616 343.018 419.449C347.334 418.972 350.72 418.599 355.223 418.097C349.105 408.823 343.353 400.109 337.162 390.723C342.599 390.393 347.438 390.096 353.541 389.734C345.527 377.796 338.176 366.863 330.345 355.187C334.077 354.961 336.495 354.818 340.117 354.599C334.186 344.396 328.699 334.957 322.549 324.368C316.235 335.029 310.633 344.49 304.696 354.524C309.075 354.904 312.092 355.169 316.322 355.542C310.502 363.5 305.105 370.885 299.573 378.449L566.997 728.346C567.005 728.346 567.012 728.346 567.019 728.346L831.937 381.725C824.36 369.843 817.313 358.787 809.723 346.867Z" fill="#9B0008"/>
</svg>