<svg fill="none" height="50" viewBox="0 0 263 50" width="263" xmlns="http://www.w3.org/2000/svg"
    xmlns:xlink="http://www.w3.org/1999/xlink">
    <clipPath id="a">
        <path d="m0 0h47.8261v50h-47.8261z" />
    </clipPath>
    <clipPath id="b">
        <path d="m60 17h202.606v25h-202.606z" />
    </clipPath>
    <g clip-path="url(#a)">
        <path d="m15.0794 26.2833-8.83326-8.7608-4.41664 4.3804c-1.219908 1.2092-1.8295 2.7948-1.8295 4.3804z"
            fill="#add6f2" />
        <path d="m15.0794 26.2833-8.83326 8.7609-4.41664-4.3804c-1.219908-1.21-1.8295-2.7956-1.8295-4.3805z"
            fill="#64b8f2" />
        <path d="m32.7467 26.2833 8.8333 8.7609 4.4166-4.3804c1.2199-1.21 1.8295-2.7949 1.8295-4.3805z"
            fill="#64b8f2" />
        <path d="m32.7467 26.2833 8.8333-8.7608 4.4166 4.3804c1.2199 1.2099 1.8295 2.7948 1.8295 4.3804z"
            fill="#add6f2" />
        <path d="m23.9133 35.0442-8.8332 8.7609 4.4166 4.3804c2.4391 2.4191 6.3942 2.4191 8.8333 0l4.4166-4.3804z"
            fill="#0c2866" />
        <path d="m41.58 17.5225-8.8333 8.7608-8.8332-8.7608z" fill="#dd423e" />
        <path d="m32.7467 8.76086-8.8332 8.76164-8.834-8.76164z" fill="#dd423e" />
        <path d="m15.0795 8.76087 8.834-8.76087 8.8332 8.76087z" fill="#add6f2" />
        <path d="m23.9134 17.5225-8.834 8.7608-8.83331-8.7608z" fill="#dd423e" />
        <path d="m6.24609 17.5225 8.83331-8.76164 8.834 8.76164z" fill="#c41c1c" />
        <path d="m23.9135 17.5225 8.8332-8.76164 8.8333 8.76164z" fill="#c41c1c" />
        <path d="m23.9135 35.0442-8.834-8.7609 8.834-8.7608z" fill="#a31916" />
        <path d="m23.9135 17.5225 8.8332 8.7608-8.8332 8.7609z" fill="#c41c1c" />
        <path d="m23.9125 35.0437-8.8334-8.761-8.83337 8.761 8.83337 8.7609z" fill="#2672b5" />
        <path d="m41.5802 35.044-8.8334-8.7609-8.8333 8.7609 8.8333 8.761z" fill="#0c2866" />
    </g>
    <g clip-path="url(#b)" fill="#0c2866">
        <path
            d="m60 17.9507h8.5241c3.3384 0 5.429 1.9537 5.429 4.8041 0 2.1716-1.0588 3.6103-2.3894 4.3701 1.9537.407 3.5292 1.8997 3.5292 4.4783 0 3.1763-2.6326 5.3478-6.4337 5.3478h-8.6592zm7.6815 7.8706c1.6008 0 2.4705-1.0587 2.4705-2.5245 0-1.4657-.9237-2.3623-2.4975-2.3623h-3.9632v4.8868zm.7869 8.1442c1.8187 0 2.8234-1.0047 2.8234-2.6055s-1.0588-2.5785-2.8504-2.5785h-4.7501v5.184z" />
        <path d="m77.5347 17.1351h3.6913v19.8159h-3.6913z" />
        <path
            d="m97.1057 36.951h-3.5292v-1.6835c-.6518 1.1938-2.2796 2.0094-4.0982 2.0094-3.1763 0-4.9409-2.1985-4.9409-5.4018v-9.0392h3.6913v8.5241c0 1.7916.8409 2.8234 2.4974 2.8234 1.6566 0 2.6866-1.0858 2.6866-2.8504v-8.4971h3.6914v14.1151z" />
        <path
            d="m99.848 30.9801v-1.9267c0-3.8281 2.28-6.5417 6.515-6.5417s6.297 2.7963 6.297 6.1887v2.4705h-9.23v.3529c0 1.6566.84 3.0953 2.985 3.0953 1.574 0 2.552-.814 2.904-1.7917h3.231c-.488 2.5785-3.013 4.4512-6.135 4.4512-3.99 0-6.5687-2.3336-6.5687-6.2968zm3.583-2.4164h5.836v-.353c0-1.7646-.922-3.0952-2.904-3.0952-2.118 0-2.932 1.4117-2.932 3.3114v.1351z" />
        <path
            d="m129.162 30.8703h-3.99v6.0807h-3.799v-19.0003h8.578c4.478 0 6.868 2.7693 6.868 6.4606 0 2.6866-1.412 4.8582-3.746 5.8629l3.963 6.6768h-4.397l-3.475-6.0807zm.326-3.0682c2.336 0 3.53-1.4387 3.53-3.4195 0-1.9807-1.221-3.3384-3.53-3.3384h-4.316v6.7596h4.316z" />
        <path
            d="m141.704 17c1.248 0 2.144.9237 2.144 2.1445 0 1.2209-.895 2.1446-2.144 2.1446-1.25 0-2.145-.9237-2.145-2.1446 0-1.2208.895-2.1445 2.145-2.1445zm-1.846 5.8359h3.692v14.1151h-3.692z" />
        <path
            d="m146.373 31.0611v-2.3337c0-3.3924 2.117-6.2158 5.917-6.2158 1.873 0 3.257.7869 4.044 1.8457v-7.2222h3.691v19.8159h-3.529v-1.6835c-.706 1.0857-2.144 2.0094-4.181 2.0094-3.799 0-5.944-2.8774-5.944-6.2158zm9.963-.1621v-2.0635c0-2.1445-1.412-3.3384-3.095-3.3384-2.091 0-3.177 1.4117-3.177 3.3924v2.0095c0 1.8727 1.005 3.3924 3.15 3.3924 1.872 0 3.122-1.4116 3.122-3.3924z" />
        <path
            d="m162.93 37.7937h3.583c.488.9777 1.601 1.4116 3.039 1.4116 1.873 0 3.069-1.0317 3.069-2.6055v-2.2256c-.598.9777-2.226 1.9267-4.045 1.9267-3.799 0-5.808-2.7693-5.808-5.8629v-2.0635c0-3.1492 1.98-5.8628 5.835-5.8628 2.172 0 3.692 1.0857 4.181 2.0364v-1.7105h3.53v13.8146c0 3.0124-2.824 5.3478-6.76 5.3478-3.311 0-6.054-1.5468-6.623-4.208zm9.691-7.5465v-1.6295c0-1.8997-1.304-3.1493-3.069-3.1493-2.063 0-3.122 1.2209-3.122 3.1493v1.6295c0 1.7916 1.005 3.0953 3.013 3.0953 1.737 0 3.176-1.1128 3.176-3.0953z" />
        <path
            d="m179.054 30.9801v-1.9267c0-3.8281 2.28-6.5417 6.515-6.5417s6.297 2.7963 6.297 6.1887v2.4705h-9.23v.3529c0 1.6566.841 3.0953 2.985 3.0953 1.574 0 2.552-.814 2.905-1.7917h3.23c-.488 2.5785-3.012 4.4512-6.135 4.4512-3.99 0-6.568-2.3336-6.568-6.2968zm3.584-2.4164h5.836v-.353c0-1.7646-.922-3.0952-2.905-3.0952-2.117 0-2.931 1.4117-2.931 3.3114v.1351z" />
        <path
            d="m208.37 30.8703h-3.99v6.0807h-3.799v-19.0003h8.578c4.478 0 6.868 2.7693 6.868 6.4606 0 2.6866-1.412 4.8582-3.746 5.8629l3.963 6.6768h-4.397l-3.475-6.0807zm.326-3.0682c2.336 0 3.53-1.4387 3.53-3.4195 0-1.9807-1.221-3.3384-3.53-3.3384h-4.316v6.7596h4.316z" />
        <path
            d="m231.334 36.951h-3.529v-1.6835c-.652 1.1938-2.28 2.0094-4.098 2.0094-3.177 0-4.941-2.1985-4.941-5.4018v-9.0392h3.691v8.5241c0 1.7916.841 2.8234 2.497 2.8234 1.657 0 2.687-1.0858 2.687-2.8504v-8.4971h3.691v14.1151z" />
        <path
            d="m238.229 35.2691v1.6836h-3.53v-19.8176h3.692v7.2762c.76-1.0587 2.171-1.8997 4.044-1.8997 3.801 0 5.917 2.8234 5.917 6.2158v2.3337c0 3.3384-2.145 6.2158-5.944 6.2158-2.036 0-3.529-.8679-4.181-2.0094zm6.433-4.3701v-2.0095c0-1.9807-1.085-3.3924-3.176-3.3924-1.684 0-3.095 1.1939-3.095 3.3384v2.0635c0 1.9808 1.248 3.3924 3.122 3.3924 2.145 0 3.149-1.5197 3.149-3.3924z" />
        <path d="m252.805 41.6741 1.411-4.7771-4.885-14.0611h3.692l3.039 10.1249 2.878-10.1249h3.664l-6.162 18.8382z" />
    </g>
</svg>
