<svg fill="none" height="50" viewBox="0 0 263 50" width="263" xmlns="http://www.w3.org/2000/svg"
    xmlns:xlink="http://www.w3.org/1999/xlink">
    <clipPath id="a">
        <path d="m0 0h47.8261v50h-47.8261z" />
    </clipPath>
    <clipPath id="b">
        <path d="m60 17h202.606v25h-202.606z" />
    </clipPath>
    <g clip-path="url(#a)">
        <path d="m15.0794 26.2833-8.83326-8.7608-4.41664 4.3804c-1.219908 1.2092-1.8295 2.7948-1.8295 4.3804z"
            fill="#add6f2" />
        <path d="m15.0794 26.2833-8.83326 8.7609-4.41664-4.3804c-1.219908-1.21-1.8295-2.7956-1.8295-4.3805z"
            fill="#64b8f2" />
        <path d="m32.7467 26.2833 8.8333 8.7609 4.4166-4.3804c1.2199-1.21 1.8295-2.7949 1.8295-4.3805z"
            fill="#64b8f2" />
        <path d="m32.7467 26.2833 8.8333-8.7608 4.4166 4.3804c1.2199 1.2099 1.8295 2.7948 1.8295 4.3804z"
            fill="#add6f2" />
        <path d="m23.9133 35.0442-8.8332 8.7609 4.4166 4.3804c2.4391 2.4191 6.3942 2.4191 8.8333 0l4.4166-4.3804z"
            fill="#0c2866" />
        <path d="m41.58 17.5225-8.8333 8.7608-8.8332-8.7608z" fill="#dd423e" />
        <path d="m32.7467 8.76086-8.8332 8.76164-8.834-8.76164z" fill="#dd423e" />
        <path d="m15.0795 8.76087 8.834-8.76087 8.8332 8.76087z" fill="#add6f2" />
        <path d="m23.9134 17.5225-8.834 8.7608-8.83331-8.7608z" fill="#dd423e" />
        <path d="m6.24609 17.5225 8.83331-8.76164 8.834 8.76164z" fill="#c41c1c" />
        <path d="m23.9135 17.5225 8.8332-8.76164 8.8333 8.76164z" fill="#c41c1c" />
        <path d="m23.9135 35.0442-8.834-8.7609 8.834-8.7608z" fill="#a31916" />
        <path d="m23.9135 17.5225 8.8332 8.7608-8.8332 8.7609z" fill="#c41c1c" />
        <path d="m23.9125 35.0437-8.8334-8.761-8.83337 8.761 8.83337 8.7609z" fill="#2672b5" />
        <path d="m41.5802 35.044-8.8334-8.7609-8.8333 8.7609 8.8333 8.761z" fill="#0c2866" />
    </g>
</svg>
