<svg version="1.1" xmlns="http://www.w3.org/2000/svg" xmlns:xlink="http://www.w3.org/1999/xlink" x="0px" y="0px"
	 width="335px" height="335px" viewBox="0 0 335 335" enable-background="new 0 0 335 335" xml:space="preserve">
<symbol  id="Horiz_Black_Stripe" viewBox="-167.5 -11.372 335 22.744">
	<polygon points="-160.646,-11.372 -141.5,11.372 -142.806,11.372 -161.952,-11.372 	"/>
	<polygon points="-167.5,8.996 -165.5,11.372 -166.806,11.372 -167.5,10.547 	"/>
	<polygon points="-167.5,1.868 -159.5,11.372 -160.806,11.372 -167.5,3.419 	"/>
	<polygon points="-167.5,5.432 -162.5,11.372 -163.806,11.372 -167.5,6.982 	"/>
	<polygon points="-167.5,-5.26 -153.5,11.372 -154.805,11.372 -167.5,-3.709 	"/>
	<polygon points="-167.5,-1.695 -156.5,11.372 -157.805,11.372 -167.5,-0.145 	"/>
	<polygon points="-167.5,-11.372 -166.646,-11.372 -147.5,11.372 -147.5,11.372 -148.806,11.372 -167.5,-10.836 	"/>
	<polygon points="-167.5,-8.823 -150.5,11.372 -151.806,11.372 -167.5,-7.273 	"/>
	<polygon points="-163.646,-11.372 -144.5,11.372 -145.806,11.372 -164.952,-11.372 	"/>
	<polygon points="-157.646,-11.372 -138.5,11.372 -139.806,11.372 -158.952,-11.372 	"/>
	<polygon points="-154.646,-11.372 -135.5,11.372 -136.806,11.372 -155.952,-11.372 	"/>
	<polygon points="-151.646,-11.372 -132.5,11.372 -133.806,11.372 -152.952,-11.372 	"/>
	<polygon points="-148.646,-11.372 -129.5,11.372 -130.806,11.372 -149.952,-11.372 	"/>
	<polygon points="-145.646,-11.372 -126.5,11.372 -127.806,11.372 -146.952,-11.372 	"/>
	<polygon points="-142.646,-11.372 -123.5,11.372 -124.806,11.372 -143.952,-11.372 	"/>
	<polygon points="-139.646,-11.372 -120.5,11.372 -121.806,11.372 -140.952,-11.372 	"/>
	<polygon points="-136.646,-11.372 -117.5,11.372 -118.806,11.372 -137.952,-11.372 	"/>
	<polygon points="-133.646,-11.372 -114.5,11.372 -115.806,11.372 -134.952,-11.372 	"/>
	<polygon points="-130.646,-11.372 -111.5,11.372 -112.806,11.372 -131.952,-11.372 	"/>
	<polygon points="-127.646,-11.372 -108.5,11.372 -109.806,11.372 -128.952,-11.372 	"/>
	<polygon points="-124.646,-11.372 -105.5,11.372 -106.806,11.372 -125.952,-11.372 	"/>
	<polygon points="-121.646,-11.372 -102.5,11.372 -103.806,11.372 -122.952,-11.372 	"/>
	<polygon points="-118.646,-11.372 -99.5,11.372 -100.806,11.372 -119.952,-11.372 	"/>
	<polygon points="-115.646,-11.372 -96.5,11.372 -97.806,11.372 -116.952,-11.372 	"/>
	<polygon points="-112.646,-11.372 -93.5,11.372 -94.806,11.372 -113.952,-11.372 	"/>
	<polygon points="-109.646,-11.372 -90.5,11.372 -91.806,11.372 -110.952,-11.372 	"/>
	<polygon points="-106.646,-11.372 -87.5,11.372 -88.806,11.372 -107.952,-11.372 	"/>
	<polygon points="-103.646,-11.372 -84.5,11.372 -85.806,11.372 -104.952,-11.372 	"/>
	<polygon points="-100.646,-11.372 -81.5,11.372 -82.806,11.372 -101.952,-11.372 	"/>
	<polygon points="-97.646,-11.372 -78.5,11.372 -79.806,11.372 -98.952,-11.372 	"/>
	<polygon points="-94.646,-11.372 -75.5,11.372 -76.806,11.372 -95.952,-11.372 	"/>
	<polygon points="-91.646,-11.372 -72.5,11.372 -73.806,11.372 -92.952,-11.372 	"/>
	<polygon points="-88.646,-11.372 -69.5,11.372 -70.806,11.372 -89.952,-11.372 	"/>
	<polygon points="-85.646,-11.372 -66.5,11.372 -67.806,11.372 -86.952,-11.372 	"/>
	<polygon points="-82.646,-11.372 -63.5,11.372 -64.806,11.372 -83.952,-11.372 	"/>
	<polygon points="-79.646,-11.372 -60.5,11.372 -61.806,11.372 -80.952,-11.372 	"/>
	<polygon points="-76.646,-11.372 -57.5,11.372 -58.806,11.372 -77.952,-11.372 	"/>
	<polygon points="-73.646,-11.372 -54.5,11.372 -55.806,11.372 -74.952,-11.372 	"/>
	<polygon points="-70.646,-11.372 -51.5,11.372 -52.806,11.372 -71.952,-11.372 	"/>
	<polygon points="-67.646,-11.372 -48.5,11.372 -49.806,11.372 -68.952,-11.372 	"/>
	<polygon points="-64.646,-11.372 -45.5,11.372 -46.806,11.372 -65.952,-11.372 	"/>
	<polygon points="-61.646,-11.372 -42.5,11.372 -43.806,11.372 -62.952,-11.372 	"/>
	<polygon points="-58.646,-11.372 -39.5,11.372 -40.806,11.372 -59.952,-11.372 	"/>
	<polygon points="-55.646,-11.372 -36.5,11.372 -37.806,11.372 -56.952,-11.372 	"/>
	<polygon points="-52.646,-11.372 -33.5,11.372 -34.806,11.372 -53.952,-11.372 	"/>
	<polygon points="-49.646,-11.372 -30.5,11.372 -31.806,11.372 -50.952,-11.372 	"/>
	<polygon points="-46.646,-11.372 -27.5,11.372 -28.806,11.372 -47.952,-11.372 	"/>
	<polygon points="-43.647,-11.372 -24.5,11.372 -25.806,11.372 -44.952,-11.372 	"/>
	<polygon points="-40.647,-11.372 -21.5,11.372 -22.806,11.372 -41.952,-11.372 	"/>
	<polygon points="-37.647,-11.372 -18.5,11.372 -19.806,11.372 -38.952,-11.372 	"/>
	<polygon points="-34.647,-11.372 -15.5,11.372 -16.806,11.372 -35.952,-11.372 	"/>
	<polygon points="-31.647,-11.372 -12.5,11.372 -13.806,11.372 -32.952,-11.372 	"/>
	<polygon points="-28.647,-11.372 -9.5,11.372 -10.806,11.372 -29.952,-11.372 	"/>
	<polygon points="-25.647,-11.372 -6.5,11.372 -7.806,11.372 -26.952,-11.372 	"/>
	<polygon points="-22.647,-11.372 -3.5,11.372 -4.806,11.372 -23.952,-11.372 	"/>
	<polygon points="-19.647,-11.372 -0.5,11.372 -1.806,11.372 -20.952,-11.372 	"/>
	<polygon points="-16.647,-11.372 2.5,11.372 1.193,11.372 -17.952,-11.372 	"/>
	<polygon points="-13.647,-11.372 5.5,11.372 4.193,11.372 -14.952,-11.372 	"/>
	<polygon points="-10.647,-11.372 8.5,11.372 7.193,11.372 -11.952,-11.372 	"/>
	<polygon points="-7.647,-11.372 11.5,11.372 10.193,11.372 -8.952,-11.372 	"/>
	<polygon points="-4.647,-11.372 14.5,11.372 13.193,11.372 -5.952,-11.372 	"/>
	<polygon points="-1.647,-11.372 17.5,11.372 16.193,11.372 -2.952,-11.372 	"/>
	<polygon points="1.354,-11.372 20.5,11.372 19.193,11.372 0.048,-11.372 	"/>
	<polygon points="4.354,-11.372 23.5,11.372 22.193,11.372 3.049,-11.372 	"/>
	<polygon points="7.354,-11.372 26.5,11.372 25.193,11.372 6.049,-11.372 	"/>
	<polygon points="10.354,-11.372 29.5,11.372 28.193,11.372 9.049,-11.372 	"/>
	<polygon points="13.354,-11.372 32.5,11.372 31.193,11.372 12.049,-11.372 	"/>
	<polygon points="16.354,-11.372 35.5,11.372 34.193,11.372 15.049,-11.372 	"/>
	<polygon points="19.354,-11.372 38.5,11.372 37.193,11.372 18.049,-11.372 	"/>
	<polygon points="22.354,-11.372 41.5,11.372 40.193,11.372 21.049,-11.372 	"/>
	<polygon points="25.354,-11.372 44.5,11.372 43.193,11.372 24.049,-11.372 	"/>
	<polygon points="28.354,-11.372 47.5,11.372 46.193,11.372 27.049,-11.372 	"/>
	<polygon points="31.354,-11.372 50.5,11.372 49.193,11.372 30.049,-11.372 	"/>
	<polygon points="34.354,-11.372 53.5,11.372 52.193,11.372 33.049,-11.372 	"/>
	<polygon points="37.354,-11.372 56.5,11.372 55.193,11.372 36.049,-11.372 	"/>
	<polygon points="40.354,-11.372 59.5,11.372 58.193,11.372 39.049,-11.372 	"/>
	<polygon points="43.354,-11.372 62.5,11.372 61.193,11.372 42.049,-11.372 	"/>
	<polygon points="46.354,-11.372 65.5,11.372 64.193,11.372 45.049,-11.372 	"/>
	<polygon points="49.354,-11.372 68.5,11.372 67.193,11.372 48.049,-11.372 	"/>
	<polygon points="52.354,-11.372 71.5,11.372 70.193,11.372 51.049,-11.372 	"/>
	<polygon points="55.354,-11.372 74.5,11.372 73.193,11.372 54.049,-11.372 	"/>
	<polygon points="58.354,-11.372 77.5,11.372 76.193,11.372 57.049,-11.372 	"/>
	<polygon points="61.354,-11.372 80.5,11.372 79.193,11.372 60.049,-11.372 	"/>
	<polygon points="64.354,-11.372 83.5,11.372 82.193,11.372 63.049,-11.372 	"/>
	<polygon points="67.354,-11.372 86.5,11.372 85.193,11.372 66.049,-11.372 	"/>
	<polygon points="70.354,-11.372 89.5,11.372 88.193,11.372 69.049,-11.372 	"/>
	<polygon points="73.354,-11.372 92.5,11.372 91.193,11.372 72.049,-11.372 	"/>
	<polygon points="76.354,-11.372 95.5,11.372 94.193,11.372 75.049,-11.372 	"/>
	<polygon points="79.354,-11.372 98.5,11.372 97.193,11.372 78.049,-11.372 	"/>
	<polygon points="82.354,-11.372 101.5,11.372 100.193,11.372 81.049,-11.372 	"/>
	<polygon points="85.354,-11.372 104.5,11.372 103.193,11.372 84.049,-11.372 	"/>
	<polygon points="88.354,-11.372 107.5,11.372 106.193,11.372 87.049,-11.372 	"/>
	<polygon points="91.354,-11.372 110.5,11.372 109.193,11.372 90.049,-11.372 	"/>
	<polygon points="94.354,-11.372 113.5,11.372 112.193,11.372 93.049,-11.372 	"/>
	<polygon points="97.354,-11.372 116.5,11.372 115.193,11.372 96.049,-11.372 	"/>
	<polygon points="100.354,-11.372 119.5,11.372 118.193,11.372 99.049,-11.372 	"/>
	<polygon points="103.354,-11.372 122.5,11.372 121.193,11.372 102.049,-11.372 	"/>
	<polygon points="106.354,-11.372 125.5,11.372 124.193,11.372 105.049,-11.372 	"/>
	<polygon points="109.354,-11.372 128.5,11.372 127.193,11.372 108.049,-11.372 	"/>
	<polygon points="112.354,-11.372 131.5,11.372 130.193,11.372 111.049,-11.372 	"/>
	<polygon points="115.354,-11.372 134.5,11.372 133.193,11.372 114.049,-11.372 	"/>
	<polygon points="118.354,-11.372 137.5,11.372 136.193,11.372 117.049,-11.372 	"/>
	<polygon points="121.354,-11.372 140.5,11.372 139.193,11.372 120.049,-11.372 	"/>
	<polygon points="124.354,-11.372 143.5,11.372 142.193,11.372 123.049,-11.372 	"/>
	<polygon points="127.354,-11.372 146.5,11.372 145.193,11.372 126.049,-11.372 	"/>
	<polygon points="130.354,-11.372 149.5,11.372 148.193,11.372 129.049,-11.372 	"/>
	<polygon points="133.354,-11.372 152.5,11.372 151.193,11.372 132.049,-11.372 	"/>
	<polygon points="136.354,-11.372 155.5,11.372 154.193,11.372 135.049,-11.372 	"/>
	<polygon points="139.354,-11.372 158.5,11.372 157.193,11.372 138.049,-11.372 	"/>
	<polygon points="142.354,-11.372 161.5,11.372 160.193,11.372 141.049,-11.372 	"/>
	<polygon points="145.354,-11.372 164.5,11.372 163.193,11.372 144.049,-11.372 	"/>
	<polygon points="148.354,-11.372 167.5,11.372 166.193,11.372 147.049,-11.372 	"/>
	<polyline points="167.473,9.328 150.049,-11.372 151.354,-11.372 167.474,7.777 	"/>
	<polyline points="167.47,5.762 153.049,-11.372 154.354,-11.372 167.472,4.211 	"/>
	<polyline points="167.473,2.2 156.049,-11.372 157.354,-11.372 167.473,0.648 	"/>
	<polyline points="167.47,-1.367 159.049,-11.372 160.354,-11.372 167.473,-2.915 	"/>
	<polyline points="167.471,-4.931 162.049,-11.372 163.354,-11.372 167.473,-6.479 	"/>
	<polyline points="167.472,-8.492 165.049,-11.372 166.354,-11.372 167.475,-10.041 	"/>
</symbol>
<symbol  id="Horiz_Red_Stripe" viewBox="-167.5 -6.031 335 12.063">
	<g>
		<polygon fill="#A03D42" points="162.777,-6.031 167.5,-0.438 167.5,1.119 161.464,-6.031 		"/>
		<polygon fill="#A03D42" points="165.796,-6.031 167.5,-4.012 167.5,-2.455 164.482,-6.031 		"/>
		<polygon fill="#A03D42" points="158.446,-6.031 159.76,-6.031 167.5,3.139 167.5,4.695 		"/>
		<polygon fill="#A03D42" points="166.924,6.031 165.61,6.031 155.428,-6.031 156.741,-6.031 		"/>
		<polygon fill="#A03D42" points="163.906,6.031 162.592,6.031 152.41,-6.031 153.724,-6.031 		"/>
		<polygon fill="#A03D42" points="160.888,6.031 159.574,6.031 149.392,-6.031 150.705,-6.031 		"/>
		<polygon fill="#A03D42" points="157.87,6.031 156.557,6.031 146.374,-6.031 147.688,-6.031 		"/>
		<polygon fill="#A03D42" points="154.852,6.031 153.538,6.031 143.355,-6.031 144.669,-6.031 		"/>
		<polygon fill="#A03D42" points="151.834,6.031 150.521,6.031 140.338,-6.031 141.651,-6.031 		"/>
		<polygon fill="#A03D42" points="148.815,6.031 147.502,6.031 137.32,-6.031 138.634,-6.031 		"/>
		<polygon fill="#A03D42" points="145.798,6.031 144.484,6.031 134.302,-6.031 135.615,-6.031 		"/>
		<polygon fill="#A03D42" points="142.779,6.031 141.466,6.031 131.284,-6.031 132.598,-6.031 		"/>
		<polygon fill="#A03D42" points="139.762,6.031 138.448,6.031 128.266,-6.031 129.579,-6.031 		"/>
		<polygon fill="#A03D42" points="136.743,6.031 135.43,6.031 125.248,-6.031 126.563,-6.031 		"/>
		<polygon fill="#A03D42" points="133.727,6.031 132.412,6.031 122.229,-6.031 123.543,-6.031 		"/>
		<polygon fill="#A03D42" points="130.708,6.031 129.395,6.031 119.212,-6.031 120.525,-6.031 		"/>
		<polygon fill="#A03D42" points="127.689,6.031 126.376,6.031 116.193,-6.031 117.507,-6.031 		"/>
		<polygon fill="#A03D42" points="124.672,6.031 123.357,6.031 113.176,-6.031 114.489,-6.031 		"/>
		<polygon fill="#A03D42" points="121.652,6.031 120.34,6.031 110.157,-6.031 111.471,-6.031 		"/>
		<polygon fill="#A03D42" points="118.636,6.031 117.322,6.031 107.141,-6.031 108.453,-6.031 		"/>
		<polygon fill="#A03D42" points="115.617,6.031 114.305,6.031 104.122,-6.031 105.436,-6.031 		"/>
		<polygon fill="#A03D42" points="112.6,6.031 111.286,6.031 101.104,-6.031 102.417,-6.031 		"/>
		<polygon fill="#A03D42" points="109.581,6.031 108.268,6.031 98.086,-6.031 99.398,-6.031 		"/>
		<polygon fill="#A03D42" points="106.563,6.031 105.25,6.031 95.066,-6.031 96.381,-6.031 		"/>
		<polygon fill="#A03D42" points="103.546,6.031 102.232,6.031 92.05,-6.031 93.363,-6.031 		"/>
		<polygon fill="#A03D42" points="100.527,6.031 99.214,6.031 89.031,-6.031 90.346,-6.031 		"/>
		<polygon fill="#A03D42" points="97.51,6.031 96.195,6.031 86.014,-6.031 87.327,-6.031 		"/>
		<polygon fill="#A03D42" points="94.491,6.031 93.178,6.031 82.995,-6.031 84.309,-6.031 		"/>
		<polygon fill="#A03D42" points="91.475,6.031 90.16,6.031 79.979,-6.031 81.291,-6.031 		"/>
		<polygon fill="#A03D42" points="88.455,6.031 87.143,6.031 76.959,-6.031 78.273,-6.031 		"/>
		<polygon fill="#A03D42" points="85.438,6.031 84.124,6.031 73.941,-6.031 75.255,-6.031 		"/>
		<polygon fill="#A03D42" points="82.419,6.031 81.105,6.031 70.924,-6.031 72.236,-6.031 		"/>
		<polygon fill="#A03D42" points="79.4,6.031 78.088,6.031 67.904,-6.031 69.219,-6.031 		"/>
		<polygon fill="#A03D42" points="76.383,6.031 75.068,6.031 64.889,-6.031 66.201,-6.031 		"/>
		<polygon fill="#A03D42" points="73.365,6.031 72.052,6.031 61.869,-6.031 63.184,-6.031 		"/>
		<polygon fill="#A03D42" points="70.348,6.031 69.034,6.031 58.852,-6.031 60.165,-6.031 		"/>
		<polygon fill="#A03D42" points="67.329,6.031 66.016,6.031 55.833,-6.031 57.146,-6.031 		"/>
		<polygon fill="#A03D42" points="64.313,6.031 62.998,6.031 52.814,-6.031 54.129,-6.031 		"/>
		<polygon fill="#A03D42" points="61.293,6.031 59.979,6.031 49.797,-6.031 51.109,-6.031 		"/>
		<polygon fill="#A03D42" points="58.275,6.031 56.962,6.031 46.779,-6.031 48.093,-6.031 		"/>
		<polygon fill="#A03D42" points="55.257,6.031 53.943,6.031 43.762,-6.031 45.075,-6.031 		"/>
		<polygon fill="#A03D42" points="52.238,6.031 50.926,6.031 40.743,-6.031 42.057,-6.031 		"/>
		<polygon fill="#A03D42" points="49.221,6.031 47.907,6.031 37.727,-6.031 39.039,-6.031 		"/>
		<polygon fill="#A03D42" points="46.203,6.031 44.891,6.031 34.707,-6.031 36.021,-6.031 		"/>
		<polygon fill="#A03D42" points="43.186,6.031 41.871,6.031 31.689,-6.031 33.003,-6.031 		"/>
		<polygon fill="#A03D42" points="40.167,6.031 38.854,6.031 28.671,-6.031 29.984,-6.031 		"/>
		<polygon fill="#A03D42" points="37.148,6.031 35.836,6.031 25.652,-6.031 26.967,-6.031 		"/>
		<polygon fill="#A03D42" points="34.131,6.031 32.816,6.031 22.635,-6.031 23.948,-6.031 		"/>
		<polygon fill="#A03D42" points="31.113,6.031 29.8,6.031 19.617,-6.031 20.932,-6.031 		"/>
		<polygon fill="#A03D42" points="28.096,6.031 26.781,6.031 16.6,-6.031 17.912,-6.031 		"/>
		<polygon fill="#A03D42" points="25.077,6.031 23.764,6.031 13.581,-6.031 14.895,-6.031 		"/>
		<polygon fill="#A03D42" points="22.059,6.031 20.745,6.031 10.563,-6.031 11.877,-6.031 		"/>
		<polygon fill="#A03D42" points="19.041,6.031 17.729,6.031 7.545,-6.031 8.857,-6.031 		"/>
		<polygon fill="#A03D42" points="16.021,6.031 14.709,6.031 4.527,-6.031 5.841,-6.031 		"/>
		<polygon fill="#A03D42" points="13.005,6.031 11.691,6.031 1.509,-6.031 2.822,-6.031 		"/>
		<polygon fill="#A03D42" points="9.986,6.031 8.674,6.031 -1.509,-6.031 -0.195,-6.031 		"/>
		<polygon fill="#A03D42" points="6.969,6.031 5.654,6.031 -4.527,-6.031 -3.214,-6.031 		"/>
		<polygon fill="#A03D42" points="3.951,6.031 2.639,6.031 -7.545,-6.031 -6.23,-6.031 		"/>
		<polygon fill="#A03D42" points="0.934,6.031 -0.381,6.031 -10.563,-6.031 -9.25,-6.031 		"/>
		<polygon fill="#A03D42" points="-2.085,6.031 -3.398,6.031 -13.581,-6.031 -12.268,-6.031 		"/>
		<polygon fill="#A03D42" points="-5.104,6.031 -6.417,6.031 -16.6,-6.031 -15.286,-6.031 		"/>
		<polygon fill="#A03D42" points="-8.121,6.031 -9.436,6.031 -19.617,-6.031 -18.305,-6.031 		"/>
		<polygon fill="#A03D42" points="-11.139,6.031 -12.453,6.031 -22.635,-6.031 -21.322,-6.031 		"/>
		<polygon fill="#A03D42" points="-14.157,6.031 -15.471,6.031 -25.652,-6.031 -24.34,-6.031 		"/>
		<polygon fill="#A03D42" points="-17.175,6.031 -18.488,6.031 -28.671,-6.031 -27.357,-6.031 		"/>
		<polygon fill="#A03D42" points="-20.193,6.031 -21.507,6.031 -31.689,-6.031 -30.375,-6.031 		"/>
		<polygon fill="#A03D42" points="-23.211,6.031 -24.525,6.031 -34.707,-6.031 -33.395,-6.031 		"/>
		<polygon fill="#A03D42" points="-26.229,6.031 -27.543,6.031 -37.725,-6.031 -36.412,-6.031 		"/>
		<polygon fill="#A03D42" points="-29.248,6.031 -30.561,6.031 -40.743,-6.031 -39.43,-6.031 		"/>
		<polygon fill="#A03D42" points="-32.266,6.031 -33.579,6.031 -43.762,-6.031 -42.448,-6.031 		"/>
		<polygon fill="#A03D42" points="-35.283,6.031 -36.598,6.031 -46.779,-6.031 -45.466,-6.031 		"/>
		<polygon fill="#A03D42" points="-38.301,6.031 -39.615,6.031 -49.797,-6.031 -48.484,-6.031 		"/>
		<polygon fill="#A03D42" points="-41.318,6.031 -42.633,6.031 -52.814,-6.031 -51.502,-6.031 		"/>
		<polygon fill="#A03D42" points="-44.337,6.031 -45.65,6.031 -55.833,-6.031 -54.52,-6.031 		"/>
		<polygon fill="#A03D42" points="-47.355,6.031 -48.669,6.031 -58.852,-6.031 -57.538,-6.031 		"/>
		<polygon fill="#A03D42" points="-50.374,6.031 -51.688,6.031 -61.869,-6.031 -60.557,-6.031 		"/>
		<polygon fill="#A03D42" points="-53.393,6.031 -54.705,6.031 -64.887,-6.031 -63.574,-6.031 		"/>
		<polygon fill="#A03D42" points="-56.41,6.031 -57.723,6.031 -67.904,-6.031 -66.592,-6.031 		"/>
		<polygon fill="#A03D42" points="-59.428,6.031 -60.741,6.031 -70.923,-6.031 -69.609,-6.031 		"/>
		<polygon fill="#A03D42" points="-62.445,6.031 -63.759,6.031 -73.941,-6.031 -72.628,-6.031 		"/>
		<polygon fill="#A03D42" points="-65.463,6.031 -66.777,6.031 -76.959,-6.031 -75.646,-6.031 		"/>
		<polygon fill="#A03D42" points="-68.48,6.031 -69.795,6.031 -79.978,-6.031 -78.664,-6.031 		"/>
		<polygon fill="#A03D42" points="-71.5,6.031 -72.813,6.031 -82.996,-6.031 -81.682,-6.031 		"/>
		<polygon fill="#A03D42" points="-74.518,6.031 -75.831,6.031 -86.014,-6.031 -84.7,-6.031 		"/>
		<polygon fill="#A03D42" points="-77.536,6.031 -78.849,6.031 -89.032,-6.031 -87.718,-6.031 		"/>
		<polygon fill="#A03D42" points="-80.554,6.031 -81.867,6.031 -92.049,-6.031 -90.736,-6.031 		"/>
		<polygon fill="#A03D42" points="-83.572,6.031 -84.885,6.031 -95.067,-6.031 -93.754,-6.031 		"/>
		<polygon fill="#A03D42" points="-86.59,6.031 -87.903,6.031 -98.085,-6.031 -96.772,-6.031 		"/>
		<polygon fill="#A03D42" points="-89.608,6.031 -90.921,6.031 -101.104,-6.031 -99.79,-6.031 		"/>
		<polygon fill="#A03D42" points="-92.626,6.031 -93.939,6.031 -104.122,-6.031 -102.808,-6.031 		"/>
		<polygon fill="#A03D42" points="-95.644,6.031 -96.957,6.031 -107.14,-6.031 -105.826,-6.031 		"/>
		<polygon fill="#A03D42" points="-98.662,6.031 -99.975,6.031 -110.158,-6.031 -108.844,-6.031 		"/>
		<polygon fill="#A03D42" points="-101.68,6.031 -102.993,6.031 -113.176,-6.031 -111.862,-6.031 		"/>
		<polygon fill="#A03D42" points="-104.698,6.031 -106.011,6.031 -116.194,-6.031 -114.88,-6.031 		"/>
		<polygon fill="#A03D42" points="-107.716,6.031 -109.029,6.031 -119.212,-6.031 -117.898,-6.031 		"/>
		<polygon fill="#A03D42" points="-110.734,6.031 -112.047,6.031 -122.229,-6.031 -120.916,-6.031 		"/>
		<polygon fill="#A03D42" points="-113.752,6.031 -115.065,6.031 -125.248,-6.031 -123.934,-6.031 		"/>
		<polygon fill="#A03D42" points="-116.77,6.031 -118.083,6.031 -128.266,-6.031 -126.952,-6.031 		"/>
		<polygon fill="#A03D42" points="-119.788,6.031 -121.102,6.031 -131.284,-6.031 -129.97,-6.031 		"/>
		<polygon fill="#A03D42" points="-122.806,6.031 -124.12,6.031 -134.302,-6.031 -132.988,-6.031 		"/>
		<polygon fill="#A03D42" points="-125.824,6.031 -127.138,6.031 -137.32,-6.031 -136.006,-6.031 		"/>
		<polygon fill="#A03D42" points="-128.842,6.031 -130.155,6.031 -140.338,-6.031 -139.024,-6.031 		"/>
		<polygon fill="#A03D42" points="-131.86,6.031 -133.173,6.031 -143.356,-6.031 -142.042,-6.031 		"/>
		<polygon fill="#A03D42" points="-134.878,6.031 -136.191,6.031 -146.374,-6.031 -145.061,-6.031 		"/>
		<polygon fill="#A03D42" points="-137.896,6.031 -139.209,6.031 -149.392,-6.031 -148.079,-6.031 		"/>
		<polygon fill="#A03D42" points="-140.914,6.031 -142.228,6.031 -152.41,-6.031 -151.096,-6.031 		"/>
		<polygon fill="#A03D42" points="-143.932,6.031 -145.246,6.031 -155.428,-6.031 -154.114,-6.031 		"/>
		<polygon fill="#A03D42" points="-146.95,6.031 -148.264,6.031 -158.446,-6.031 -157.132,-6.031 		"/>
		<polygon fill="#A03D42" points="-149.968,6.031 -151.282,6.031 -161.464,-6.031 -160.15,-6.031 		"/>
		<polygon fill="#A03D42" points="-152.986,6.031 -154.3,6.031 -164.482,-6.031 -163.168,-6.031 		"/>
		<polygon fill="#A03D42" points="-156.004,6.031 -157.317,6.031 -167.5,-6.031 -166.187,-6.031 		"/>
		<polygon fill="#A03D42" points="-160.335,6.031 -167.5,-2.455 -167.5,-4.012 -159.022,6.031 		"/>
		<polygon fill="#A03D42" points="-163.354,6.031 -167.5,1.119 -167.5,-0.438 -162.04,6.031 		"/>
		<polygon fill="#A03D42" points="-166.372,6.031 -167.5,4.695 -167.5,3.139 -165.058,6.031 		"/>
	</g>
</symbol>
<symbol  id="Vertical_Black" viewBox="-11.372 -167.5 22.744 335">
	<g>
		<polygon points="10.719,167.5 -11.372,141.257 -11.372,139.707 11.372,166.725 11.372,167.5 		"/>
		<polygon points="0.024,167.5 -1.281,167.5 -11.372,155.514 -11.372,153.962 		"/>
		<polygon points="-2.976,167.5 -4.281,167.5 -11.372,159.077 -11.372,157.525 		"/>
		<polygon points="-7.281,167.5 -11.372,162.641 -11.372,161.09 -5.976,167.5 		"/>
		<polygon points="-10.281,167.5 -11.372,166.204 -11.372,164.654 -8.976,167.5 		"/>
		<polygon points="4.719,153.245 -11.372,134.13 -11.372,132.579 11.372,159.598 11.372,161.148 		"/>
		<polygon points="1.719,153.245 -11.372,137.693 -11.372,136.143 11.372,163.16 11.372,164.712 		"/>
		<polygon points="0.024,160.372 6.024,167.5 4.719,167.5 -11.372,148.385 -11.372,146.834 		"/>
		<polygon points="-2.976,160.372 3.024,167.5 1.719,167.5 -11.372,151.949 -11.372,150.398 		"/>
		<polygon points="4.719,146.117 -11.372,127.002 -11.372,125.452 11.372,152.47 11.372,154.021 		"/>
		<polygon points="1.719,146.117 -11.372,130.566 -11.372,129.016 11.372,156.033 11.372,157.584 		"/>
		<polygon points="-2.976,153.245 9.024,167.5 7.719,167.5 -11.372,144.82 -11.372,143.271 		"/>
		<polygon points="4.719,138.989 -11.372,119.875 -11.372,118.324 11.372,145.342 11.372,146.893 		"/>
		<polygon points="1.719,138.989 -11.372,123.438 -11.372,121.889 11.372,148.905 11.372,150.457 		"/>
		<polygon points="4.719,131.861 -11.372,112.747 -11.372,111.195 11.372,138.214 11.372,139.766 		"/>
		<polygon points="1.719,131.861 -11.372,116.311 -11.372,114.76 11.372,141.777 11.372,143.329 		"/>
		<polygon points="4.719,124.734 -11.372,105.619 -11.372,104.068 11.372,131.087 11.372,132.639 		"/>
		<polygon points="1.719,124.734 -11.372,109.184 -11.372,107.632 11.372,134.648 11.372,136.201 		"/>
		<polygon points="4.719,117.605 -11.372,98.492 -11.372,96.941 11.372,123.959 11.372,125.51 		"/>
		<polygon points="1.719,117.605 -11.372,102.055 -11.372,100.505 11.372,127.521 11.372,129.074 		"/>
		<polygon points="4.719,110.479 -11.372,91.364 -11.372,89.813 11.372,116.832 11.372,118.382 		"/>
		<polygon points="1.719,110.479 -11.372,94.928 -11.372,93.377 11.372,120.395 11.372,121.945 		"/>
		<polygon points="4.719,103.352 -11.372,84.236 -11.372,82.686 11.372,109.704 11.372,111.254 		"/>
		<polygon points="1.719,103.352 -11.372,87.8 -11.372,86.25 11.372,113.268 11.372,114.818 		"/>
		<polygon points="4.719,96.225 -11.372,77.107 -11.372,75.559 11.372,102.576 11.372,104.127 		"/>
		<polygon points="1.719,96.225 -11.372,80.672 -11.372,79.122 11.372,106.139 11.372,107.691 		"/>
		<polygon points="4.719,89.096 -11.372,69.98 -11.372,68.43 11.372,95.449 11.372,96.999 		"/>
		<polygon points="1.719,89.096 -11.372,73.545 -11.372,71.994 11.372,99.011 11.372,100.563 		"/>
		<polygon points="4.719,81.968 -11.372,62.854 -11.372,61.303 11.372,88.32 11.372,89.872 		"/>
		<polygon points="1.719,81.968 -11.372,66.417 -11.372,64.866 11.372,91.884 11.372,93.436 		"/>
		<polygon points="4.719,74.84 -11.372,55.727 -11.372,54.175 11.372,81.193 11.372,82.744 		"/>
		<polygon points="1.719,74.84 -11.372,59.29 -11.372,57.739 11.372,84.756 11.372,86.309 		"/>
		<polygon points="4.719,67.713 -11.372,48.598 -11.372,47.047 11.372,74.064 11.372,75.616 		"/>
		<polygon points="1.719,67.713 -11.372,52.162 -11.372,50.611 11.372,77.628 11.372,79.18 		"/>
		<polygon points="4.719,60.585 -11.372,41.47 -11.372,39.919 11.372,66.938 11.372,68.489 		"/>
		<polygon points="1.719,60.585 -11.372,45.034 -11.372,43.482 11.372,70.501 11.372,72.052 		"/>
		<polygon points="4.719,53.458 -11.372,34.343 -11.372,32.792 11.372,59.811 11.372,61.361 		"/>
		<polygon points="1.719,53.458 -11.372,37.906 -11.372,36.355 11.372,63.373 11.372,64.925 		"/>
		<polygon points="4.719,46.33 -11.372,27.215 -11.372,25.664 11.372,52.684 11.372,54.232 		"/>
		<polygon points="1.719,46.33 -11.372,30.779 -11.372,29.229 11.372,56.246 11.372,57.797 		"/>
		<polygon points="4.719,39.202 -11.372,20.087 -11.372,18.537 11.372,45.555 11.372,47.105 		"/>
		<polygon points="1.719,39.202 -11.372,23.65 -11.372,22.102 11.372,49.118 11.372,50.669 		"/>
		<polygon points="4.719,32.074 -11.372,12.959 -11.372,11.409 11.372,38.427 11.372,39.979 		"/>
		<polygon points="1.719,32.074 -11.372,16.523 -11.372,14.973 11.372,41.99 11.372,43.542 		"/>
		<polygon points="4.719,24.947 -11.372,5.832 -11.372,4.281 11.372,31.3 11.372,32.85 		"/>
		<polygon points="1.719,24.947 -11.372,9.396 -11.372,7.845 11.372,34.861 11.372,36.414 		"/>
		<polygon points="4.719,17.818 -11.372,-1.296 -11.372,-2.848 11.372,24.172 11.372,25.723 		"/>
		<polygon points="1.719,17.818 -11.372,2.268 -11.372,0.717 11.372,27.734 11.372,29.287 		"/>
		<polygon points="4.719,10.691 -11.372,-8.424 -11.372,-9.975 11.372,17.044 11.372,18.595 		"/>
		<polygon points="1.719,10.691 -11.372,-4.859 -11.372,-6.41 11.372,20.607 11.372,22.159 		"/>
		<polygon points="4.719,3.564 -11.372,-15.551 -11.372,-17.102 11.372,9.917 11.372,11.467 		"/>
		<polygon points="1.719,3.564 -11.372,-11.986 -11.372,-13.538 11.372,13.479 11.372,15.031 		"/>
		<polygon points="4.719,-3.563 -11.372,-22.68 -11.372,-24.229 11.372,2.789 11.372,4.34 		"/>
		<polygon points="1.719,-3.563 -11.372,-19.115 -11.372,-20.666 11.372,6.352 11.372,7.902 		"/>
		<polygon points="4.719,-10.691 -11.372,-29.807 -11.372,-31.357 11.372,-4.339 11.372,-2.788 		"/>
		<polygon points="1.719,-10.691 -11.372,-26.242 -11.372,-27.793 11.372,-0.775 11.372,0.775 		"/>
		<polygon points="4.719,-17.818 -11.372,-36.934 -11.372,-38.484 11.372,-11.467 11.372,-9.916 		"/>
		<polygon points="1.719,-17.818 -11.372,-33.37 -11.372,-34.921 11.372,-7.902 11.372,-6.352 		"/>
		<polygon points="4.719,-24.947 -11.372,-44.063 -11.372,-45.611 11.372,-18.594 11.372,-17.043 		"/>
		<polygon points="1.719,-24.947 -11.372,-40.498 -11.372,-42.049 11.372,-15.031 11.372,-13.479 		"/>
		<polygon points="4.719,-32.074 -11.372,-51.189 -11.372,-52.74 11.372,-25.723 11.372,-24.171 		"/>
		<polygon points="1.719,-32.074 -11.372,-47.625 -11.372,-49.176 11.372,-22.159 11.372,-20.607 		"/>
		<polygon points="4.719,-39.202 -11.372,-58.316 -11.372,-59.867 11.372,-32.85 11.372,-31.299 		"/>
		<polygon points="1.719,-39.202 -11.372,-54.753 -11.372,-56.305 11.372,-29.286 11.372,-27.734 		"/>
		<polygon points="4.719,-46.33 -11.372,-65.443 -11.372,-66.995 11.372,-39.977 11.372,-38.426 		"/>
		<polygon points="1.719,-46.33 -11.372,-61.881 -11.372,-63.432 11.372,-36.414 11.372,-34.861 		"/>
		<polygon points="4.719,-53.457 -11.372,-72.572 -11.372,-74.123 11.372,-47.104 11.372,-45.555 		"/>
		<polygon points="1.719,-53.457 -11.372,-69.009 -11.372,-70.561 11.372,-43.542 11.372,-41.99 		"/>
		<polygon points="4.719,-60.585 -11.372,-79.7 -11.372,-81.251 11.372,-54.232 11.372,-52.682 		"/>
		<polygon points="1.719,-60.585 -11.372,-76.136 -11.372,-77.688 11.372,-50.67 11.372,-49.118 		"/>
		<polygon points="4.719,-67.713 -11.372,-86.827 -11.372,-88.378 11.372,-61.359 11.372,-59.811 		"/>
		<polygon points="1.719,-67.713 -11.372,-83.264 -11.372,-84.814 11.372,-57.797 11.372,-56.245 		"/>
		<polygon points="4.719,-74.841 -11.372,-93.955 -11.372,-95.506 11.372,-68.486 11.372,-66.938 		"/>
		<polygon points="1.719,-74.841 -11.372,-90.393 -11.372,-91.941 11.372,-64.925 11.372,-63.373 		"/>
		<polygon points="4.719,-81.968 -11.372,-101.083 -11.372,-102.634 11.372,-75.615 11.372,-74.064 		"/>
		<polygon points="1.719,-81.968 -11.372,-97.52 -11.372,-99.068 11.372,-72.053 11.372,-70.501 		"/>
		<polygon points="4.719,-89.096 -11.372,-108.211 -11.372,-109.762 11.372,-82.743 11.372,-81.191 		"/>
		<polygon points="1.719,-89.096 -11.372,-104.646 -11.372,-106.197 11.372,-79.18 11.372,-77.629 		"/>
		<polygon points="4.719,-96.225 -11.372,-115.338 -11.372,-116.889 11.372,-89.871 11.372,-88.32 		"/>
		<polygon points="1.719,-96.225 -11.372,-111.773 -11.372,-113.325 11.372,-86.309 11.372,-84.756 		"/>
		<polygon points="4.719,-103.352 -11.372,-122.466 -11.372,-124.018 11.372,-96.998 11.372,-95.447 		"/>
		<polygon points="1.719,-103.352 -11.372,-118.902 -11.372,-120.453 11.372,-93.436 11.372,-91.884 		"/>
		<polygon points="4.719,-110.479 -11.372,-129.594 -11.372,-131.145 11.372,-104.126 11.372,-102.575 		"/>
		<polygon points="1.719,-110.479 -11.372,-126.029 -11.372,-127.58 11.372,-100.563 11.372,-99.012 		"/>
		<polygon points="4.719,-117.605 -11.372,-136.721 -11.372,-138.271 11.372,-111.254 11.372,-109.703 		"/>
		<polygon points="1.719,-117.605 -11.372,-133.157 -11.372,-134.708 11.372,-107.689 11.372,-106.139 		"/>
		<polygon points="4.719,-124.734 -11.372,-143.85 -11.372,-145.398 11.372,-118.381 11.372,-116.83 		"/>
		<polygon points="1.719,-124.734 -11.372,-140.285 -11.372,-141.836 11.372,-114.818 11.372,-113.268 		"/>
		<polygon points="4.719,-131.861 -11.372,-150.977 -11.372,-152.527 11.372,-125.509 11.372,-123.958 		"/>
		<polygon points="1.719,-131.861 -11.372,-147.413 -11.372,-148.964 11.372,-121.945 11.372,-120.395 		"/>
		<polygon points="4.719,-138.989 -11.372,-158.104 -11.372,-159.654 11.372,-132.637 11.372,-131.086 		"/>
		<polygon points="1.719,-138.989 -11.372,-154.54 -11.372,-156.091 11.372,-129.074 11.372,-127.521 		"/>
		<polygon points="4.719,-146.117 -11.372,-165.23 -11.372,-166.782 11.372,-139.766 11.372,-138.214 		"/>
		<polygon points="1.719,-146.117 -11.372,-161.668 -11.372,-163.219 11.372,-136.201 11.372,-134.648 		"/>
		<polygon points="4.719,-153.245 -7.281,-167.5 -5.976,-167.5 11.372,-146.893 11.372,-145.341 		"/>
		<polygon points="1.719,-153.245 -10.281,-167.5 -8.976,-167.5 11.372,-143.329 11.372,-141.777 		"/>
		<polygon points="4.719,-160.372 -1.281,-167.5 0.024,-167.5 11.372,-154.02 11.372,-152.469 		"/>
		<polygon points="1.719,-160.372 -4.281,-167.5 -2.976,-167.5 11.372,-150.457 11.372,-148.904 		"/>
		<polygon points="4.719,-167.5 6.024,-167.5 11.372,-161.146 11.372,-159.598 		"/>
		<polygon points="9.024,-167.5 11.372,-164.712 11.372,-163.16 7.719,-167.5 		"/>
		<polygon points="11.372,-167.5 11.372,-166.725 10.719,-167.5 		"/>
		<polygon points="1.719,-167.5 3.024,-167.5 11.372,-157.584 11.372,-156.032 		"/>
	</g>
</symbol>
<symbol  id="Vertical_Red_Stripe" viewBox="-4.5 -167.5 9 335">
	<g>
		<polygon fill="#A03D42" points="-1.5,167.5 -4.5,163.936 -4.5,162.385 -0.194,167.5 		"/>
		<polygon fill="#A03D42" points="-4.5,167.5 -4.5,165.949 -3.194,167.5 		"/>
		<polygon fill="#A03D42" points="2.806,167.5 1.5,167.5 -4.5,160.372 -4.5,158.82 		"/>
		<polygon fill="#A03D42" points="-4.5,156.809 -4.5,155.257 4.5,165.949 4.5,167.5 		"/>
		<polygon fill="#A03D42" points="-4.5,153.245 -4.5,151.693 4.5,162.385 4.5,163.936 		"/>
		<polygon fill="#A03D42" points="-4.5,149.682 -4.5,148.13 4.5,158.82 4.5,160.372 		"/>
		<polygon fill="#A03D42" points="-4.5,146.117 -4.5,144.566 4.5,155.257 4.5,156.809 		"/>
		<polygon fill="#A03D42" points="-4.5,142.553 -4.5,141.002 4.5,151.693 4.5,153.245 		"/>
		<polygon fill="#A03D42" points="-4.5,138.989 -4.5,137.438 4.5,148.13 4.5,149.682 		"/>
		<polygon fill="#A03D42" points="-4.5,135.426 -4.5,133.875 4.5,144.566 4.5,146.117 		"/>
		<polygon fill="#A03D42" points="-4.5,131.861 -4.5,130.311 4.5,141.002 4.5,142.553 		"/>
		<polygon fill="#A03D42" points="-4.5,128.298 -4.5,126.747 4.5,137.438 4.5,138.989 		"/>
		<polygon fill="#A03D42" points="-4.5,124.734 -4.5,123.184 4.5,133.875 4.5,135.426 		"/>
		<polygon fill="#A03D42" points="-4.5,121.17 -4.5,119.619 4.5,130.311 4.5,131.861 		"/>
		<polygon fill="#A03D42" points="-4.5,117.605 -4.5,116.055 4.5,126.747 4.5,128.298 		"/>
		<polygon fill="#A03D42" points="-4.5,114.042 -4.5,112.491 4.5,123.184 4.5,124.734 		"/>
		<polygon fill="#A03D42" points="-4.5,110.479 -4.5,108.928 4.5,119.619 4.5,121.17 		"/>
		<polygon fill="#A03D42" points="-4.5,106.915 -4.5,105.364 4.5,116.055 4.5,117.605 		"/>
		<polygon fill="#A03D42" points="-4.5,103.352 -4.5,101.8 4.5,112.491 4.5,114.042 		"/>
		<polygon fill="#A03D42" points="-4.5,99.787 -4.5,98.236 4.5,108.928 4.5,110.479 		"/>
		<polygon fill="#A03D42" points="-4.5,96.225 -4.5,94.672 4.5,105.364 4.5,106.915 		"/>
		<polygon fill="#A03D42" points="-4.5,92.66 -4.5,91.107 4.5,101.8 4.5,103.352 		"/>
		<polygon fill="#A03D42" points="-4.5,89.096 -4.5,87.544 4.5,98.236 4.5,99.787 		"/>
		<polygon fill="#A03D42" points="-4.5,85.532 -4.5,83.98 4.5,94.672 4.5,96.225 		"/>
		<polygon fill="#A03D42" points="-4.5,81.968 -4.5,80.417 4.5,91.107 4.5,92.66 		"/>
		<polygon fill="#A03D42" points="-4.5,78.404 -4.5,76.854 4.5,87.544 4.5,89.096 		"/>
		<polygon fill="#A03D42" points="-4.5,74.84 -4.5,73.289 4.5,83.98 4.5,85.532 		"/>
		<polygon fill="#A03D42" points="-4.5,71.275 -4.5,69.727 4.5,80.417 4.5,81.968 		"/>
		<polygon fill="#A03D42" points="-4.5,67.713 -4.5,66.162 4.5,76.854 4.5,78.404 		"/>
		<polygon fill="#A03D42" points="-4.5,64.148 -4.5,62.598 4.5,73.289 4.5,74.84 		"/>
		<polygon fill="#A03D42" points="-4.5,60.585 -4.5,59.034 4.5,69.727 4.5,71.275 		"/>
		<polygon fill="#A03D42" points="-4.5,57.021 -4.5,55.47 4.5,66.162 4.5,67.713 		"/>
		<polygon fill="#A03D42" points="-4.5,53.458 -4.5,51.906 4.5,62.598 4.5,64.148 		"/>
		<polygon fill="#A03D42" points="-4.5,49.895 -4.5,48.342 4.5,59.034 4.5,60.585 		"/>
		<polygon fill="#A03D42" points="-4.5,46.33 -4.5,44.779 4.5,55.47 4.5,57.021 		"/>
		<polygon fill="#A03D42" points="-4.5,42.766 -4.5,41.215 4.5,51.906 4.5,53.458 		"/>
		<polygon fill="#A03D42" points="-4.5,39.202 -4.5,37.65 4.5,48.342 4.5,49.895 		"/>
		<polygon fill="#A03D42" points="-4.5,35.639 -4.5,34.087 4.5,44.779 4.5,46.33 		"/>
		<polygon fill="#A03D42" points="-4.5,32.074 -4.5,30.523 4.5,41.215 4.5,42.766 		"/>
		<polygon fill="#A03D42" points="-4.5,28.511 -4.5,26.959 4.5,37.65 4.5,39.202 		"/>
		<polygon fill="#A03D42" points="-4.5,24.947 -4.5,23.396 4.5,34.087 4.5,35.639 		"/>
		<polygon fill="#A03D42" points="-4.5,21.383 -4.5,19.832 4.5,30.523 4.5,32.074 		"/>
		<polygon fill="#A03D42" points="-4.5,17.818 -4.5,16.268 4.5,26.959 4.5,28.511 		"/>
		<polygon fill="#A03D42" points="-4.5,14.255 -4.5,12.704 4.5,23.396 4.5,24.947 		"/>
		<polygon fill="#A03D42" points="-4.5,10.691 -4.5,9.141 4.5,19.832 4.5,21.383 		"/>
		<polygon fill="#A03D42" points="-4.5,7.127 -4.5,5.577 4.5,16.268 4.5,17.818 		"/>
		<polygon fill="#A03D42" points="-4.5,3.564 -4.5,2.014 4.5,12.704 4.5,14.255 		"/>
		<polygon fill="#A03D42" points="-4.5,0 -4.5,-1.551 4.5,9.141 4.5,10.691 		"/>
		<polygon fill="#A03D42" points="-4.5,-3.563 -4.5,-5.115 4.5,5.577 4.5,7.127 		"/>
		<polygon fill="#A03D42" points="-4.5,-7.128 -4.5,-8.68 4.5,2.014 4.5,3.564 		"/>
		<polygon fill="#A03D42" points="-4.5,-10.691 -4.5,-12.243 4.5,-1.551 4.5,0 		"/>
		<polygon fill="#A03D42" points="-4.5,-14.255 -4.5,-15.807 4.5,-5.115 4.5,-3.563 		"/>
		<polygon fill="#A03D42" points="-4.5,-17.818 -4.5,-19.37 4.5,-8.68 4.5,-7.128 		"/>
		<polygon fill="#A03D42" points="-4.5,-21.383 -4.5,-22.936 4.5,-12.243 4.5,-10.691 		"/>
		<polygon fill="#A03D42" points="-4.5,-24.947 -4.5,-26.498 4.5,-15.807 4.5,-14.255 		"/>
		<polygon fill="#A03D42" points="-4.5,-28.511 -4.5,-30.063 4.5,-19.37 4.5,-17.818 		"/>
		<polygon fill="#A03D42" points="-4.5,-32.074 -4.5,-33.626 4.5,-22.936 4.5,-21.383 		"/>
		<polygon fill="#A03D42" points="-4.5,-35.639 -4.5,-37.189 4.5,-26.498 4.5,-24.947 		"/>
		<polygon fill="#A03D42" points="-4.5,-39.202 -4.5,-40.753 4.5,-30.063 4.5,-28.511 		"/>
		<polygon fill="#A03D42" points="-4.5,-42.766 -4.5,-44.316 4.5,-33.626 4.5,-32.074 		"/>
		<polygon fill="#A03D42" points="-4.5,-46.33 -4.5,-47.881 4.5,-37.189 4.5,-35.639 		"/>
		<polygon fill="#A03D42" points="-4.5,-49.895 -4.5,-51.445 4.5,-40.753 4.5,-39.202 		"/>
		<polygon fill="#A03D42" points="-4.5,-53.457 -4.5,-55.009 4.5,-44.316 4.5,-42.766 		"/>
		<polygon fill="#A03D42" points="-4.5,-57.021 -4.5,-58.572 4.5,-47.881 4.5,-46.33 		"/>
		<polygon fill="#A03D42" points="-4.5,-60.585 -4.5,-62.137 4.5,-51.445 4.5,-49.895 		"/>
		<polygon fill="#A03D42" points="-4.5,-64.148 -4.5,-65.7 4.5,-55.009 4.5,-53.457 		"/>
		<polygon fill="#A03D42" points="-4.5,-67.713 -4.5,-69.264 4.5,-58.572 4.5,-57.021 		"/>
		<polygon fill="#A03D42" points="-4.5,-71.275 -4.5,-72.828 4.5,-62.137 4.5,-60.585 		"/>
		<polygon fill="#A03D42" points="-4.5,-74.841 -4.5,-76.393 4.5,-65.7 4.5,-64.148 		"/>
		<polygon fill="#A03D42" points="-4.5,-78.404 -4.5,-79.955 4.5,-69.264 4.5,-67.713 		"/>
		<polygon fill="#A03D42" points="-4.5,-81.968 -4.5,-83.52 4.5,-72.828 4.5,-71.275 		"/>
		<polygon fill="#A03D42" points="-4.5,-85.532 -4.5,-87.083 4.5,-76.393 4.5,-74.841 		"/>
		<polygon fill="#A03D42" points="-4.5,-89.096 -4.5,-90.646 4.5,-79.955 4.5,-78.404 		"/>
		<polygon fill="#A03D42" points="-4.5,-92.659 -4.5,-94.211 4.5,-83.52 4.5,-81.968 		"/>
		<polygon fill="#A03D42" points="-4.5,-96.225 -4.5,-97.773 4.5,-87.083 4.5,-85.532 		"/>
		<polygon fill="#A03D42" points="-4.5,-99.787 -4.5,-101.339 4.5,-90.646 4.5,-89.096 		"/>
		<polygon fill="#A03D42" points="-4.5,-103.352 -4.5,-104.902 4.5,-94.211 4.5,-92.659 		"/>
		<polygon fill="#A03D42" points="-4.5,-106.915 -4.5,-108.466 4.5,-97.773 4.5,-96.225 		"/>
		<polygon fill="#A03D42" points="-4.5,-110.479 -4.5,-112.03 4.5,-101.339 4.5,-99.787 		"/>
		<polygon fill="#A03D42" points="-4.5,-114.043 -4.5,-115.594 4.5,-104.902 4.5,-103.352 		"/>
		<polygon fill="#A03D42" points="-4.5,-117.605 -4.5,-119.157 4.5,-108.466 4.5,-106.915 		"/>
		<polygon fill="#A03D42" points="-4.5,-121.17 -4.5,-122.723 4.5,-112.03 4.5,-110.479 		"/>
		<polygon fill="#A03D42" points="-4.5,-124.734 -4.5,-126.285 4.5,-115.594 4.5,-114.043 		"/>
		<polygon fill="#A03D42" points="-4.5,-128.298 -4.5,-129.85 4.5,-119.157 4.5,-117.605 		"/>
		<polygon fill="#A03D42" points="-4.5,-131.861 -4.5,-133.413 4.5,-122.723 4.5,-121.17 		"/>
		<polygon fill="#A03D42" points="-4.5,-135.426 -4.5,-136.977 4.5,-126.285 4.5,-124.734 		"/>
		<polygon fill="#A03D42" points="-4.5,-138.989 -4.5,-140.541 4.5,-129.85 4.5,-128.298 		"/>
		<polygon fill="#A03D42" points="-4.5,-142.553 -4.5,-144.104 4.5,-133.413 4.5,-131.861 		"/>
		<polygon fill="#A03D42" points="-4.5,-146.117 -4.5,-147.668 4.5,-136.977 4.5,-135.426 		"/>
		<polygon fill="#A03D42" points="-4.5,-149.682 -4.5,-151.232 4.5,-140.541 4.5,-138.989 		"/>
		<polygon fill="#A03D42" points="-4.5,-153.245 -4.5,-154.796 4.5,-144.104 4.5,-142.553 		"/>
		<polygon fill="#A03D42" points="-4.5,-156.809 -4.5,-158.359 4.5,-147.668 4.5,-146.117 		"/>
		<polygon fill="#A03D42" points="-4.5,-160.372 -4.5,-161.924 4.5,-151.232 4.5,-149.682 		"/>
		<polygon fill="#A03D42" points="-4.5,-163.938 -4.5,-165.486 4.5,-154.796 4.5,-153.245 		"/>
		<polygon fill="#A03D42" points="-4.5,-167.5 -3.194,-167.5 4.5,-158.359 4.5,-156.809 		"/>
		<polygon fill="#A03D42" points="-0.194,-167.5 4.5,-161.924 4.5,-160.372 -1.5,-167.5 		"/>
		<polygon fill="#A03D42" points="2.806,-167.5 4.5,-165.486 4.5,-163.938 1.5,-167.5 		"/>
	</g>
</symbol>
<rect fill="#ECDAB6" width="335" height="335"/>
<g>
	<g>
		<rect y="178.871" fill="#FCFAF7" width="335" height="22.757"/>
		<rect x="0.001" y="133.372" fill="#FCFAF7" width="335" height="22.757"/>
	</g>
	<g>
		<rect x="133.373" fill="#FCFAF7" width="22.756" height="335"/>
		<rect x="178.873" fill="#FCFAF7" width="22.756" height="335"/>
	</g>
</g>
<g>
	<rect x="17.501" y="15.968" fill="#AC474D" width="9" height="12.063"/>
	<rect x="308.501" y="15.969" fill="#AC474D" width="9" height="12.063"/>
	<rect x="308.501" y="306.969" fill="#AC474D" width="9" height="12.063"/>
	<rect x="17.501" y="306.969" fill="#AC474D" width="9" height="12.063"/>
</g>
<g>
	<g>
		<rect x="17.501" y="110.628" fill="#AC474D" width="9" height="22.744"/>
		<rect x="17.501" y="156.128" fill="#AC474D" width="9" height="22.743"/>
		<rect x="17.501" y="201.629" fill="#AC474D" width="9" height="22.743"/>
		<rect x="308.501" y="110.628" fill="#AC474D" width="9" height="22.744"/>
		<rect x="308.501" y="156.128" fill="#AC474D" width="9" height="22.743"/>
		<rect x="308.501" y="201.629" fill="#AC474D" width="9" height="22.742"/>
	</g>
	<g>
		<rect x="110.629" y="15.969" fill="#AC474D" width="22.744" height="12.063"/>
		<rect x="156.129" y="15.969" fill="#AC474D" width="22.744" height="12.063"/>
		<rect x="201.629" y="15.969" fill="#AC474D" width="22.744" height="12.063"/>
		<rect x="110.629" y="306.969" fill="#AC474D" width="22.744" height="12.063"/>
		<rect x="156.129" y="306.969" fill="#AC474D" width="22.744" height="12.063"/>
		<rect x="201.629" y="306.969" fill="#AC474D" width="22.744" height="12.063"/>
	</g>
</g>
<use xlink:href="#Horiz_Red_Stripe"  width="335" height="12.063" x="-167.5" y="-6.031" transform="matrix(1 0 0 -1 167.5 313)" overflow="visible"/>
<use xlink:href="#Horiz_Red_Stripe"  width="335" height="12.063" x="-167.5" y="-6.031" transform="matrix(1 0 0 -1 167.603 22.0005)" overflow="visible"/>
<use xlink:href="#Vertical_Red_Stripe"  width="9" height="335" x="-4.5" y="-167.5" transform="matrix(1 0 0 -1 313.001 167.5)" overflow="visible"/>
<use xlink:href="#Vertical_Red_Stripe"  width="9" height="335" x="-4.5" y="-167.5" transform="matrix(1 0 0 -1 22.001 167.5)" overflow="visible"/>
<use xlink:href="#Horiz_Black_Stripe"  width="335" height="22.744" x="-167.5" y="-11.372" transform="matrix(1 0 0 -1 167.5 213.1113)" overflow="visible"/>
<use xlink:href="#Horiz_Black_Stripe"  width="335" height="22.744" x="-167.5" y="-11.372" transform="matrix(1 0 0 -1 167.5547 167.499)" overflow="visible"/>
<use xlink:href="#Horiz_Black_Stripe"  width="335" height="22.744" x="-167.5" y="-11.372" transform="matrix(1 0 0 -1 167.501 122)" overflow="visible"/>
<use xlink:href="#Vertical_Black"  width="22.744" height="335" x="-11.372" y="-167.5" transform="matrix(1 0 0 -1 122.0249 167.5)" overflow="visible"/>
<use xlink:href="#Vertical_Black"  width="22.744" height="335" x="-11.372" y="-167.5" transform="matrix(1 0 0 -1 213.001 167.5)" overflow="visible"/>
<use xlink:href="#Vertical_Black"  width="22.744" height="335" x="-11.372" y="-167.5" transform="matrix(1 0 0 -1 167.5 167.4995)" overflow="visible"/>
<g>
	<rect x="110.629" y="110.628" fill="#231F20" width="22.744" height="22.744"/>
	<rect x="156.129" y="110.628" fill="#231F20" width="22.744" height="22.744"/>
	<rect x="201.629" y="110.628" fill="#231F20" width="22.744" height="22.744"/>
	<rect x="201.629" y="156.128" fill="#231F20" width="22.744" height="22.744"/>
	<rect x="156.129" y="156.128" fill="#231F20" width="22.744" height="22.744"/>
	<rect x="110.629" y="156.128" fill="#231F20" width="22.744" height="22.744"/>
	<rect x="110.629" y="201.628" fill="#231F20" width="22.744" height="22.744"/>
	<rect x="156.129" y="201.628" fill="#231F20" width="22.744" height="22.744"/>
	<rect x="201.629" y="201.628" fill="#231F20" width="22.744" height="22.744"/>
</g>
</svg>
