<?xml version="1.0" encoding="UTF-8"?>
<svg width="200px" height="180px" viewBox="0 0 100 90" version="1.1" xmlns="http://www.w3.org/2000/svg" xmlns:xlink="http://www.w3.org/1999/xlink">
    <!-- Generator: Sketch 52.5 (67469) - http://www.bohemiancoding.com/sketch -->
    <title>RailsConf2019-mini-logo</title>
    <desc>Created with Sketch.</desc>
    <defs>
        <circle id="path-1" cx="40" cy="40" r="40"/>
        <path d="M4.29519977,1.38364473 L4.29519977,1.12464838 C4.29519977,0.680611438 4.65516283,0.320648376 5.09919977,0.320648376 C5.18770529,0.320648376 5.27560349,0.335261935 5.35934787,0.363899426 L10.9100142,2.2620227 C11.2352959,2.37325705 11.4538661,2.67899662 11.4538661,3.02277165 L11.4538661,22.032 L4.29519977,22.032 L-9.09494702e-13,22.032 L-9.09161635e-13,2.91518351 C-9.09197008e-13,2.62633954 0.154941434,2.3596929 0.405889142,2.21666812 L3.09308891,0.685129339 C3.47886831,0.465258784 3.9698446,0.599754472 4.18971516,0.985533867 C4.25884548,1.10682821 4.29519977,1.24403341 4.29519977,1.38364473 Z" id="path-3"/>
        <path d="M3.86346651,1.21241364 L3.86346651,1.1010619 C3.86346651,0.657024962 4.22342957,0.297061901 4.66746651,0.297061901 C4.75054459,0.297061901 4.83312076,0.309938245 4.91225464,0.335232432 L8.41003216,1.45325469 C8.74316053,1.55973514 8.96924404,1.86935198 8.96924404,2.21908416 L8.96924404,17.136 L3.86346651,17.136 L0,17.136 L-1.11022302e-16,2.16516457 C-1.50596159e-16,1.84201951 0.193466771,1.55027604 0.491143067,1.42453205 L2.74660958,0.471781109 C3.15564963,0.298994996 3.62731293,0.490516653 3.80009904,0.899556702 C3.84191942,0.998558932 3.86346651,1.10494091 3.86346651,1.21241364 Z" id="path-5"/>
        <path d="M3.67404427,1.23688508 L3.67404427,1.04480387 C3.67404427,0.600766929 4.03400733,0.240803867 4.47804427,0.240803867 C4.54756384,0.240803867 4.61678983,0.249820446 4.68399,0.267627983 L9.23465628,1.47352014 C9.58720829,1.56694376 9.83271055,1.88597574 9.83271055,2.25069603 L9.83271055,21.216 L3.67404427,21.216 L-1.13686838e-13,21.216 L-1.13908882e-13,2.15461606 C-1.13947801e-13,1.83682412 0.187187819,1.5488517 0.477616412,1.41984415 L2.54366068,0.502113171 C2.949464,0.321856492 3.42455949,0.50469817 3.60481617,0.910501488 C3.65046051,1.01325842 3.67404427,1.12444669 3.67404427,1.23688508 Z" id="path-7"/>
        <path d="M40,78 C49.1297142,78 90.5124814,75.3484898 97.244607,70.2 C106.802368,62.8905646 103.08769,49.5616758 103.08769,36.6 C103.08769,22.8762168 91.2865579,15.5303233 80.7545595,8.32572998 C74.3330341,3.93297591 48.3676068,0 40,0 C17.90861,0 0,17.90861 0,40 C0,62.09139 17.90861,78 40,78 Z" id="path-9"/>
        <path d="M0,45.2544664 L0,16.2176879 L85.3482004,16.2176879 C85.3532022,16.2064706 85.3582114,16.1952571 85.3632278,16.1840477 C85.8323951,16.2063899 86.3044507,16.2176879 86.7791411,16.2176879 C98.2529932,16.2176879 108.187462,9.61683896 113.003101,-1.69464442e-11 C127.019027,1.27370891 138,13.0740729 138,27.4430584 C138,34.2281501 135.5515,40.4404995 131.491141,45.2422017 C130.290219,46.4105421 128.398918,48.2990041 124.986064,48.2990041 C118.833609,48.2990041 118.192637,45.1700165 116.493592,45.1700165 C114.794547,45.1700165 115.288322,48.2990041 108.00062,48.2990041 C100.712918,48.2990041 101.205691,45.1700165 99.507647,45.1700165 C97.8096034,45.1700165 97.8096034,48.2990041 91.0146745,48.2990041 C84.2197456,48.2990041 84.2197456,45.1700165 82.521702,45.1700165 C80.8236583,45.1700165 80.39109,48.2990041 74.0292302,48.2990041 C69.2086223,48.2990041 66.8174416,46.1044553 65.9417771,45.3427114 C65.9417771,45.2846065 65.9417771,45.2270415 65.9417771,45.1700165 C65.9417771,45.0500005 65.8779082,45.0653402 65.7392678,45.1727629 C65.6006274,45.0653402 65.5367585,45.0500005 65.5367585,45.1700165 L65.5367585,45.3427114 C64.661094,46.1044553 62.2699133,48.2990041 57.4493054,48.2990041 C51.0874456,48.2990041 50.6548773,45.1700165 48.9568337,45.1700165 C47.25879,45.1700165 47.25879,48.2990041 40.4638611,48.2990041 C33.6689322,48.2990041 33.6689322,45.1700165 31.9708886,45.1700165 C30.2728449,45.1700165 30.765618,48.2990041 23.477916,48.2990041 C16.190214,48.2990041 16.6839887,45.1700165 14.9849435,45.1700165 C13.2858983,45.1700165 12.6449268,48.2990041 6.49247174,48.2990041 C3.09153384,48.2990041 1.20154336,46.423707 -2.65343303e-14,45.2544664 Z" id="path-11"/>
    </defs>
    <g id="Page-1" stroke="none" stroke-width="1" fill="none" fill-rule="evenodd">
        <g id="RailsConf2019-mini-logo" transform="translate(3.000000, 2.000000)">
            <path d="M70.8229792,75 C74.011111,76.2596843 78.306384,76.2596843 83.3477755,75.2150718 C88.389167,74.1704594 97,63.8501258 97,49.5 C97,31.5507456 83.3446849,17 66.5,17 C49.6553151,17 36,31.5507456 36,49.5 C36,66.5410968 70.0355266,74.6888643 70.8229792,75 Z" id="Oval" fill="#FFFFFF"/>
            <g id="Rectangle" transform="translate(0.000000, 5.000000)">
                <mask id="mask-2" fill="white">
                    <use xlink:href="#path-1"/>
                </mask>
                <circle stroke="#FFFFFF" stroke-width="3" cx="40" cy="40" r="41.5"/>
                <rect id="blue" fill="#6DBAF4" mask="url(#mask-2)" x="7" y="56" width="69" height="22"/>
                <rect fill="#FFCC5A" mask="url(#mask-2)" x="0" y="0" width="80" height="36"/>
                <g id="buildings" mask="url(#mask-2)">
                    <g transform="translate(22.000000, 6.000000)">
                        <g id="Group-3" transform="translate(11.872377, 0.264000)">
                            <g id="Rectangle-+-Rectangle-Mask-Copy" transform="translate(0.000000, 0.160000)">
                                <mask id="mask-4" fill="white">
                                    <use xlink:href="#path-3"/>
                                </mask>
                                <path stroke="#03223B" stroke-width="2.412" d="M4.00267847,-0.560189655 C4.31801695,-0.765837052 4.6946513,-0.885351624 5.09919977,-0.885351624 C5.32046356,-0.885351624 5.54020908,-0.848817726 5.74957002,-0.777224001 L11.3002363,1.12089927 C12.1134406,1.39898515 12.6598661,2.16333408 12.6598661,3.02277165 L12.6598661,23.238 L-1.206,23.238 L-1.206,2.91518351 C-1.206,2.19307359 -0.818646415,1.52645699 -0.191277145,1.16889504 L2.49592263,-0.36264374 C2.97181606,-0.63387376 3.51174255,-0.689402014 4.00267847,-0.560189655 Z"/>
                                <rect id="Rectangle" fill="#C4C0BA" mask="url(#mask-4)" x="-2" y="-1" width="8" height="16"/>
                                <polygon id="Rectangle" fill="#A99E8D" mask="url(#mask-4)" points="5.10577752 -4.54747351e-13 17.2644438 1.632 17.2644438 31.008 5.10577752 31.008"/>
                                <rect id="Rectangle" fill="#03223B" mask="url(#mask-4)" x="3.48462202" y="-0.816" width="2.43173326" height="33.456"/>
                            </g>
                        </g>
                        <g id="Rectangle-+-Rectangle-Mask" transform="translate(0.524289, 7.320000)">
                            <mask id="mask-6" fill="white">
                                <use xlink:href="#path-5"/>
                            </mask>
                            <path stroke="#03223B" stroke-width="2.412" d="M3.73574818,-0.6804119 C4.01425853,-0.826373486 4.33122052,-0.908938099 4.66746651,-0.908938099 C4.8751617,-0.908938099 5.08160212,-0.876747238 5.27943682,-0.813511771 L8.77721434,0.304510487 C9.61003526,0.570711616 10.175244,1.34475371 10.175244,2.21908416 L10.175244,18.342 L-1.206,18.342 L-1.206,2.16516457 C-1.206,1.35730193 -0.722333072,0.627943246 0.0218576679,0.313583258 L2.27732418,-0.639167681 C2.76027968,-0.843177054 3.2781555,-0.844039154 3.73574818,-0.6804119 Z"/>
                            <rect id="Rectangle" fill="#C4C0BA" mask="url(#mask-6)" x="-1" y="-1" width="6" height="7"/>
                            <polygon id="Rectangle" fill="#A99E8D" mask="url(#mask-6)" points="4.67404427 -4.54747351e-13 9.77982179 0.816 9.77982179 30.192 4.67404427 30.192"/>
                            <rect id="Rectangle" fill="#03223B" mask="url(#mask-6)" x="3.05288876" y="-1.632" width="2.43173326" height="33.456"/>
                        </g>
                        <g id="Rectangle-+-Rectangle-Mask-Copy-4" transform="translate(25.705088, 6.240000)">
                            <mask id="mask-8" fill="white">
                                <use xlink:href="#path-7"/>
                            </mask>
                            <path stroke="#03223B" stroke-width="2.412" d="M3.45546563,-0.6860059 C3.75504765,-0.863383741 4.10465618,-0.965196133 4.47804427,-0.965196133 C4.6518432,-0.965196133 4.82490818,-0.942654685 4.9929086,-0.898135843 L9.54357488,0.307756315 C10.4249549,0.541315354 11.0387105,1.33889531 11.0387105,2.25069603 L11.0387105,22.422 L-1.206,22.422 L-1.206,2.15461606 C-1.206,1.36013621 -0.738030452,0.640205176 -0.0119589702,0.317686291 L2.0540853,-0.600044688 C2.51387804,-0.804283317 3.00925336,-0.822065535 3.45546563,-0.6860059 Z"/>
                            <rect id="Rectangle" fill="#C4C0BA" mask="url(#mask-8)" x="-2" y="-1" width="9" height="11"/>
                            <polygon id="Rectangle" fill="#A99E8D" mask="url(#mask-8)" points="3.67404427 0 12.8327105 0.816 12.8327105 30.192 3.67404427 30.192"/>
                            <rect id="Rectangle" fill="#03223B" mask="url(#mask-8)" x="2.86346651" y="-1.632" width="2.43173326" height="33.456"/>
                        </g>
                    </g>
                </g>
                <path d="M-5.585284,25.0633701 C10.4621268,21.6879629 26.5120028,20 42.5627551,20 C58.6135074,20 74.6633834,21.6879629 90.7107942,25.0633701 L91.9020408,25.3139365 L91.9020408,53.1875 L-6.77653061,53.1875 L-6.77653061,25.3139365 L-5.585284,25.0633701 Z" id="green" stroke="#03223B" stroke-width="3" fill="#68D265" mask="url(#mask-2)"/>
                <circle id="Mask-Copy-4" stroke="#03223B" stroke-width="3" mask="url(#mask-2)" cx="40" cy="40" r="38.5"/>
            </g>
            <g id="Combined-Shape" transform="translate(3.000000, 5.000000)">
                <mask id="mask-10" fill="white">
                    <use xlink:href="#path-9"/>
                </mask>
                <g id="Mask"/>
                <g mask="url(#mask-10)">
                    <g transform="translate(-50.000000, 17.000000)">
                        <mask id="mask-12" fill="white">
                            <use xlink:href="#path-11"/>
                        </mask>
                        <path stroke="#03223B" stroke-width="3" d="M84.3760942,14.7176879 L84.4121774,14.637058 L85.4345783,14.6857456 C85.8812822,14.7070181 86.3295484,14.7176879 86.7791411,14.7176879 C97.4168073,14.7176879 106.976653,8.684746 111.661863,-0.671625765 L112.119956,-1.58643762 L113.138855,-1.49384429 C128.014836,-0.141977185 139.5,12.3856433 139.5,27.4430584 C139.5,34.410451 137.041031,41.0020713 132.636528,46.2107509 L132.537116,46.3173462 C131.934917,46.9032073 131.689868,47.1326017 131.279839,47.4732814 C129.492687,48.9581655 127.507972,49.7990041 124.986064,49.7990041 C122.027859,49.7990041 119.957197,49.1608492 118.221964,47.9719167 C117.829053,47.7027057 116.763166,46.844735 116.55156,46.7107253 C116.399992,46.8686757 115.670474,47.600366 115.267107,47.9159303 C113.688833,49.1506543 111.46737,49.7990041 108.00062,49.7990041 C104.533875,49.7990041 102.312222,49.1506489 100.733828,47.9159864 C100.349487,47.6153441 99.6694519,46.9373297 99.4744897,46.7368568 C99.2804267,46.9064503 98.4806399,47.6338374 98.0622909,47.9420944 C96.4168247,49.1545423 94.2592591,49.7990041 91.0146745,49.7990041 C87.7700899,49.7990041 85.6125243,49.1545423 83.9670581,47.9420944 C83.5041154,47.6009789 82.5740826,46.7466172 82.5146442,46.7028205 C82.4547688,46.6587018 82.4837746,46.6700165 82.521702,46.6700165 C82.5424019,46.6700165 82.5483698,46.66806 82.4896011,46.7041906 C82.3589681,46.7845029 81.3231959,47.6558217 80.8855553,47.9626824 C79.1799419,49.1586083 77.0804083,49.7990041 74.0292302,49.7990041 C71.2061459,49.7990041 68.8905373,49.1276186 66.9740822,47.9791359 C66.5297151,47.7128381 66.1250763,47.4315297 65.7392678,47.129712 C65.3534593,47.4315297 64.9488205,47.7128381 64.5044534,47.9791359 C62.5879983,49.1276186 60.2723897,49.7990041 57.4493054,49.7990041 C54.3981273,49.7990041 52.2985937,49.1586083 50.5929804,47.9626824 C50.1553397,47.6558217 49.1195675,46.7845029 48.9889345,46.7041906 C48.9301658,46.66806 48.9361337,46.6700165 48.9568337,46.6700165 C48.994761,46.6700165 49.0237668,46.6587018 48.9638914,46.7028205 C48.904453,46.7466172 47.9744202,47.6009789 47.5114775,47.9420944 C45.8660113,49.1545423 43.7084457,49.7990041 40.4638611,49.7990041 C37.2192765,49.7990041 35.0617109,49.1545423 33.4162447,47.9420944 C32.9978957,47.6338374 32.1981089,46.9064503 32.0040459,46.7368568 C31.8090837,46.9373297 31.1290486,47.6153441 30.7447072,47.9159864 C29.1663139,49.1506489 26.9446603,49.7990041 23.477916,49.7990041 C20.0111653,49.7990041 17.789703,49.1506543 16.2114287,47.9159303 C15.8080617,47.600366 15.0785433,46.8686757 14.9269753,46.7107253 C14.7153693,46.844735 13.6494825,47.7027057 13.256572,47.9719167 C11.5213387,49.1608492 9.45067615,49.7990041 6.49247174,49.7990041 C3.97056394,49.7990041 1.98584819,48.9581655 0.198696999,47.4732814 C-0.207704599,47.1356159 -0.463870215,46.8960664 -1.04611118,46.3294787 L-1.5,45.8877924 L-1.5,14.7176879 L84.3760942,14.7176879 Z"/>
                        <rect id="Rectangle" stroke="none" fill="#CCAA66" fill-rule="evenodd" mask="url(#mask-12)" x="34" y="0" width="91" height="25"/>
                        <path d="M2,48.2544664 L2,19.2176879 L87.3482004,19.2176879 C87.3532022,19.2064706 87.3582114,19.1952571 87.3632278,19.1840477 C87.8323951,19.2063899 88.3044507,19.2176879 88.7791411,19.2176879 C100.252993,19.2176879 110.187462,12.616839 115.003101,3 C129.019027,4.27370891 140,16.0740729 140,30.4430584 C140,37.2281501 137.5515,43.4404995 133.491141,48.2422017 C132.290219,49.4105421 130.398918,51.2990041 126.986064,51.2990041 C120.833609,51.2990041 120.192637,48.1700165 118.493592,48.1700165 C116.794547,48.1700165 117.288322,51.2990041 110.00062,51.2990041 C102.712918,51.2990041 103.205691,48.1700165 101.507647,48.1700165 C99.8096034,48.1700165 99.8096034,51.2990041 93.0146745,51.2990041 C86.2197456,51.2990041 86.2197456,48.1700165 84.521702,48.1700165 C82.8236583,48.1700165 82.39109,51.2990041 76.0292302,51.2990041 C71.2086223,51.2990041 68.8174416,49.1044553 67.9417771,48.3427114 C67.9417771,48.2846065 67.9417771,48.2270415 67.9417771,48.1700165 C67.9417771,48.0500005 67.8779082,48.0653402 67.7392678,48.1727629 C67.6006274,48.0653402 67.5367585,48.0500005 67.5367585,48.1700165 L67.5367585,48.3427114 C66.661094,49.1044553 64.2699133,51.2990041 59.4493054,51.2990041 C53.0874456,51.2990041 52.6548773,48.1700165 50.9568337,48.1700165 C49.25879,48.1700165 49.25879,51.2990041 42.4638611,51.2990041 C35.6689322,51.2990041 35.6689322,48.1700165 33.9708886,48.1700165 C32.2728449,48.1700165 32.765618,51.2990041 25.477916,51.2990041 C18.190214,51.2990041 18.6839887,48.1700165 16.9849435,48.1700165 C15.2858983,48.1700165 14.6449268,51.2990041 8.49247174,51.2990041 C5.09153384,51.2990041 3.20154336,49.423707 2,48.2544664 Z" id="Mask-Copy" stroke="none" fill="#C09555" fill-rule="evenodd" mask="url(#mask-12)"/>
                        <rect id="Rectangle" stroke="none" fill="#FFDD35" fill-rule="evenodd" mask="url(#mask-12)" x="116" y="0" width="35" height="49"/>
                        <path d="M115,55.6334979 L117.567417,55.6334979 L117.567417,37.3369739 L119.34324,37.3369739 C127.330143,35.6258977 133.939335,30.218643 137.279503,23 C150.208192,23.190213 160.630003,33.6938206 160.630003,46.6231797 C160.630003,59.6713513 150.015772,70.2489844 136.922455,70.2489844 C136.800661,70.2489844 136.679082,70.2480691 136.557724,70.2462451 L116.992872,70.2489844 L116.992872,59.4239176 C116.219165,58.2300827 115.550529,56.9622791 115,55.6334979 Z" id="Combined-Shape" stroke="none" fill="#FFC821" fill-rule="evenodd" mask="url(#mask-12)"/>
                        <rect id="Rectangle" stroke="none" fill="#B37F44" fill-rule="evenodd" mask="url(#mask-12)" x="42" y="38" width="73" height="15"/>
                        <rect id="Rectangle" stroke="none" fill="#03223B" fill-rule="evenodd" mask="url(#mask-12)" x="114.672579" y="-1.71769068" width="3" height="50.9581568"/>
                    </g>
                </g>
                <g id="oar" mask="url(#mask-10)" fill="#FFFFFF" stroke="#03223B" stroke-width="3.456">
                    <g transform="translate(10.631637, 61.410907) rotate(35.000000) translate(-10.631637, -61.410907) translate(-1.868363, 37.410907)" id="Rectangle">
                        <path d="M12.737698,2.08969591 C11.6453269,2.08969591 10.6419176,2.69189299 10.1280724,3.65585744 C6.76055829,9.97338187 4.5468668,16.7510484 3.48535191,23.9975186 C2.78865784,28.7535262 2.49479168,33.3050979 2.6025169,37.6525309 C2.70936344,41.9645031 6.23558614,45.4044317 10.5488802,45.4044317 L14.7695174,45.4044276 C19.0628113,45.4044276 22.5802759,41.9952126 22.7144357,37.704015 C22.865003,32.8878832 22.6231212,28.3192421 21.9900441,23.9975186 C21.0741309,17.7450034 18.8136057,10.9510093 15.1990548,3.62036638 C14.7369362,2.68314358 13.7826574,2.08969591 12.737698,2.08969591 Z"/>
                    </g>
                </g>
            </g>
            <path d="M53.0494853,2.99004403 L53.0494853,2.99004403 C53.2455381,2.26379344 53.9932127,1.83398322 54.7194633,2.03003603 C54.7402492,2.03564724 54.7608992,2.04175051 54.7813958,2.04834068 C54.9874009,2.11454818 55.1929139,2.18227357 55.3979432,2.25149127 C55.4487091,2.26863666 55.4487091,2.26863666 55.4993806,2.28577529 C55.6765091,2.34570551 56.2800686,2.55092979 56.3902815,2.58825597 C56.704277,2.69459787 56.9193931,2.76628069 57.082666,2.81857973 C57.319589,2.89447009 57.5370145,2.96696924 57.7429539,3.03889812 C58.0990018,3.16325573 58.4260626,3.28779968 58.7515784,3.42325398 C59.2470876,3.62944632 60.2422687,4.12094436 61.7371215,4.89774811 L61.7371378,4.89771671 C62.3959622,5.24007634 62.6525075,6.05169633 62.3101479,6.7105207 C62.2979908,6.73391546 62.285148,6.75694752 62.2716364,6.77958701 L62.2716364,6.77958701 C61.863908,7.46275816 60.9942723,7.70961329 60.288422,7.34254301 C58.8862042,6.61332773 57.9736576,6.16073912 57.5507846,5.98477235 C57.2817414,5.87281756 57.0105211,5.76953753 56.7098446,5.66451962 C56.5304658,5.6018676 56.3383249,5.53779942 56.1259739,5.46977988 C55.9421168,5.41088738 55.7140487,5.33488859 55.3848853,5.22340973 C55.2721452,5.18522765 54.6691679,4.98020133 54.4948529,4.92122305 C54.4450991,4.90439481 54.4450991,4.90439481 54.395373,4.8876006 C54.2640192,4.84325568 54.1334656,4.7998057 54.0037122,4.75725066 L54.0037143,4.75724424 C53.2664759,4.51545326 52.8472744,3.73910619 53.0494853,2.99004403 Z" id="Path-2" fill="#03223B" fill-rule="nonzero"/>
            <path d="M53.8698286,-0.520020702 L54.6889882,-0.520020702 C56.2817579,-0.520020702 57.8092928,0.112700102 58.9355572,1.23895219 L60.670995,2.97437104 C61.7972531,4.1006168 62.4299793,5.62814123 62.4299793,7.22090196 L62.4299793,8.0400386 C62.4299793,9.39414061 61.4109291,10.5312803 60.0649261,10.6791589 L52.6996827,11.4883409 C51.5660359,11.6128889 50.5460674,10.7948528 50.4215194,9.66120595 C50.4050514,9.5113125 50.4050515,9.36006616 50.4215199,9.21017275 L51.230709,1.84502626 C51.3785904,0.499025954 52.515729,-0.520020702 53.8698286,-0.520020702 Z" id="Mask-Copy-18" stroke="#FFFFFF" stroke-width="2.95" fill="#03223B" transform="translate(56.454979, 5.454979) rotate(-14.000000) translate(-56.454979, -5.454979) "/>
            <path d="M37.4715563,-2.42704243 L37.5636352,-2.42583877 C38.3584672,-2.4255771 39.0027753,-1.78136961 39.003161,-0.986537654 L39.0321502,56.3320825 L38.4864888,67.6826708 C38.4625201,68.1812576 38.0512137,68.5731369 37.5520512,68.5729726 L37.5520512,68.5729726 C37.0526645,68.5728082 36.6412143,68.1809128 36.6167525,67.6821256 L36.0600711,56.3311041 L36.0310828,-0.987516086 C36.0306969,-1.78280603 36.6750939,-2.42782878 37.4703839,-2.42821473 C37.4707748,-2.42821492 37.4711658,-2.42821495 37.4715567,-2.42821482 Z" id="Rectangle" fill="#03223B" transform="translate(37.532150, 33.072973) rotate(35.000000) translate(-37.532150, -33.072973) "/>
        </g>
    </g>
</svg>
