<svg id="Camada_1" data-name="Camada 1" xmlns="http://www.w3.org/2000/svg" xmlns:xlink="http://www.w3.org/1999/xlink" viewBox="0 0 1000 1000"><defs><style>.cls-1{fill:url(#Gradiente_sem_nome_35);}.cls-2{fill:#d38a76;}.cls-3,.cls-5,.cls-7{opacity:0.47;}.cls-3{fill:url(#Gradiente_sem_nome_76);}.cls-4{fill:url(#Gradiente_sem_nome_35-2);}.cls-5{fill:url(#Gradiente_sem_nome_76-2);}.cls-6{fill:url(#Gradiente_sem_nome_35-3);}.cls-7{fill:url(#Gradiente_sem_nome_76-3);}.cls-8,.cls-9{font-size:244.92px;font-family:Eurostile-Med, Eurostile;}.cls-8{fill:#fff;}.cls-10{letter-spacing:0em;}.cls-11{letter-spacing:0em;}.cls-12{letter-spacing:0em;}</style><linearGradient id="Gradiente_sem_nome_35" x1="35.65" y1="350.51" x2="166.13" y2="480.99" gradientUnits="userSpaceOnUse"><stop offset="0" stop-color="#fff"/><stop offset="1" stop-color="#941000"/></linearGradient><linearGradient id="Gradiente_sem_nome_76" x1="86.47" y1="396.76" x2="167.14" y2="477.44" gradientUnits="userSpaceOnUse"><stop offset="0" stop-color="#941d00"/><stop offset="1" stop-color="#a01516"/></linearGradient><linearGradient id="Gradiente_sem_nome_35-2" x1="101.61" y1="382.14" x2="266.38" y2="546.91" xlink:href="#Gradiente_sem_nome_35"/><linearGradient id="Gradiente_sem_nome_76-2" x1="165.82" y1="440.59" x2="267.49" y2="542.27" xlink:href="#Gradiente_sem_nome_76"/><linearGradient id="Gradiente_sem_nome_35-3" x1="189.28" y1="419.28" x2="400.66" y2="630.66" xlink:href="#Gradiente_sem_nome_35"/><linearGradient id="Gradiente_sem_nome_76-3" x1="271.69" y1="494.31" x2="401.91" y2="624.53" xlink:href="#Gradiente_sem_nome_76"/></defs><title>sequel_logo</title><path class="cls-1" d="M97.34,510.05l-76-43.48a7.79,7.79,0,0,1-3.92-6.74l-.33-87.54A7.8,7.8,0,0,1,21,365.53l75.65-44a7.8,7.8,0,0,1,7.79,0l76,43.49a7.79,7.79,0,0,1,3.93,6.73l.32,87.54a7.78,7.78,0,0,1-3.87,6.76l-75.64,44A7.82,7.82,0,0,1,97.34,510.05Z"/><polygon class="cls-2" points="102.03 495.55 33.18 456.14 32.89 376.81 101.44 336.89 170.29 376.3 170.58 455.63 102.03 495.55"/><path class="cls-3" d="M157,351.56c-52.34,19.5-94.91,53.72-109.53,130l41.78,23.91a23.92,23.92,0,0,0,23.91-.09l59.76-34.8a23.52,23.52,0,0,0,11.68-20.41l-.26-70a22.47,22.47,0,0,0-11.31-19.42Z"/><path class="cls-4" d="M180.54,584,82.76,528a7.77,7.77,0,0,1-3.92-6.73l-.42-112.66a7.79,7.79,0,0,1,3.87-6.77l97.36-56.69a7.77,7.77,0,0,1,7.79,0l97.78,56a7.78,7.78,0,0,1,3.92,6.73l.43,112.67a7.79,7.79,0,0,1-3.88,6.76l-97.36,56.69A7.75,7.75,0,0,1,180.54,584Z"/><polygon class="cls-2" points="185.43 565.09 98.66 515.43 98.29 415.45 184.69 365.14 271.46 414.8 271.83 514.78 185.43 565.09"/><path class="cls-5" d="M254.74,383.62c-66,24.58-119.62,67.7-138,163.79l52.64,30.13a30.14,30.14,0,0,0,30.14-.11l75.31-43.85a29.66,29.66,0,0,0,14.73-25.73l-.33-88.2a28.31,28.31,0,0,0-14.25-24.47Z"/><path class="cls-6" d="M291.64,678.55,164.22,605.61a7.78,7.78,0,0,1-3.92-6.73l-.55-146.82a7.8,7.8,0,0,1,3.87-6.76L290.5,371.41a7.8,7.8,0,0,1,7.79,0l127.42,72.94a7.78,7.78,0,0,1,3.92,6.73l.55,146.82a7.77,7.77,0,0,1-3.87,6.76L299.43,678.52A7.8,7.8,0,0,1,291.64,678.55Z"/><polygon class="cls-2" points="296.81 653.76 185.69 590.16 185.21 462.11 295.86 397.68 406.99 461.29 407.46 589.33 296.81 653.76"/><path class="cls-7" d="M385.58,421.35c-84.5,31.48-153.2,86.71-176.8,209.77l67.43,38.59a38.6,38.6,0,0,0,38.6-.14l96.45-56.17a38,38,0,0,0,18.86-32.95l-.43-113a36.25,36.25,0,0,0-18.25-31.35Z"/><text class="cls-8" transform="translate(223.15 607.48)">S</text><text class="cls-9" transform="translate(434.26 582.99)">e<tspan class="cls-10" x="123.44" y="0">q</tspan><tspan x="249.57" y="0">u</tspan><tspan class="cls-11" x="375.21" y="0">e</tspan><tspan class="cls-12" x="497.92" y="0">l</tspan></text></svg>