<?xml version="1.0" encoding="UTF-8" standalone="no"?>
<svg version="1.1" xmlns="http://www.w3.org/2000/svg" width="718" height="597">
<defs>
<clipPath id="drawfield">
	<rect x="0" y="22" width="698" height="560"/>
</clipPath>
<pattern id="grid" x="51" y="62" width="60" height="55" patternUnits="userSpaceOnUse">
	<path style="stroke-dasharray:1,2;stroke:#999;stroke-width:1px;fill:none;" d="M 0.5 0.5 h 60 M 0.5 0.5 v 55"/>
	<path style="stroke-dasharray:1,3;stroke:#ccc;stroke-width:1px;fill:none;" d="M 0.5 11.5 h 60  m -60 11 h 60  m -60 11 h 60  m -60 11 h 60  M 15.5 0.5 v 55  m 15 -55 v 55  m 15 -55 v 55"/>
</pattern>
</defs>
<rect width="718" height="597" fill="#fff"/>
<rect x="0" y="22" width="698" height="560" fill="url(#grid)"/>
<path style="stroke:#000;stroke-width:3px;fill:none;stroke-linecap:round;" d="M 0 502.5 h 710 M 51.5 10 v 580 M 55.5 62.5 h -8 m 8 55 h -8 m 8 55 h -8 m 8 55 h -8 m 8 55 h -8 m 8 55 h -8 m 8 55 h -8 m 8 55 h -8 m 8 55 h -8 m 8 55 h -8 M 111.5 498.5 v 8 m 60 -8 v 8 m 60 -8 v 8 m 60 -8 v 8 m 60 -8 v 8 m 60 -8 v 8 m 60 -8 v 8 m 60 -8 v 8 m 60 -8 v 8 m 60 -8 v 8 "/>

<path style="stroke:none; fill:#000" d="M 51.5 17 h -5 l 5 -10 l 5 10 z M 703 502.5 v 5 l 10 -5 l -10 -5 z"/>

<g id="texte" style="font-family:FreeSans;font-size:13px;font-weight:bold;">
	<g style="text-anchor:middle;">
		<text x="111.5" y="523">1</text>
		<text x="171.5" y="523">2</text>
		<text x="231.5" y="523">3</text>
		<text x="291.5" y="523">4</text>
		<text x="351.5" y="523">5</text>
		<text x="411.5" y="523">6</text>
		<text x="471.5" y="523">7</text>
		<text x="531.5" y="523">8</text>
		<text x="591.5" y="523">9</text>
		<text x="651.5" y="523">10</text>
		<text x="703.5" y="493">x</text>
	</g>
	<text x="60.5" y="10.5">y</text>
	<text x="60.5" y="67.5">2000</text>
	<text x="60.5" y="122.5">1750</text>
	<text x="60.5" y="177.5">1500</text>
	<text x="60.5" y="232.5">1250</text>
	<text x="60.5" y="287.5">1000</text>
	<text x="60.5" y="342.5">750</text>
	<text x="60.5" y="397.5">500</text>
	<text x="60.5" y="452.5">250</text>
	<text x="60.5" y="562.5">-250</text>

	<g style="font-size:20px;">
		<text x="150" y="150" style="fill:#f00"><tspan>f</tspan><tspan dy="4" style="font-size:14px;">(x)</tspan><tspan dy="-4">=50x</tspan></text>
		<text x="150" y="190" style="fill:#00f"><tspan>f</tspan><tspan dy="4" style="font-size:14px;">(x)</tspan><tspan dy="-4">=x</tspan><tspan dy="-9" style="font-size:14px;">3</tspan></text>
		<text x="150" y="230" style="fill:#0a0"><tspan>f</tspan><tspan dy="4" style="font-size:14px;">(x)</tspan><tspan dy="-4">=2</tspan><tspan dy="-9" style="font-size:14px;">x</tspan></text>
	</g>
</g>

<g id="graphs" style="fill:none;stroke-width:3px;" clip-path="url(#drawfield)">
<!--
x0 = 51.5
y0 = 502.5
1x=60/1 = 60
1y=55/250 = 0.22
-->

	<path stroke="#f00" d="M -8.5 513.5 L 711.5 381.5"/>

<!--
	<path stroke="#000" stroke-width="1px"
	d="M -8.5 502.72 L 291.5 488.42 L 411.5 454.98 L 531.5 389.86 L 651.5 282.5 L 711.5 209.68" />
-->
	<path stroke="#00f" d="M -8.5 502.72 C 240 490 450 545 711.5 209.68"/>

<!--
	<path stroke="#000" stroke-width="1px"
	d="M -8.5 502.39 L 351.5 495.46 L 471.5 474.34 L 531.5 446.18 L 591.5 389.86 L 651.5 277.22 L 711.5 51.94" />
-->
	<path stroke="#0a0" d="M -8.5 502.39 C 510 492 605 550 711.5 51.94"/>

</g>
 
<script xmlns=""/></svg>